<?xml version="1.0" encoding="utf-8"?>
<!-- Generator: Adobe Illustrator 28.3.0, SVG Export Plug-In . SVG Version: 6.00 Build 0)  -->
<svg version="1.1" id="Layer_1" xmlns="http://www.w3.org/2000/svg" xmlns:xlink="http://www.w3.org/1999/xlink" x="0px" y="0px"
	 viewBox="0 0 400 420" style="enable-background:new 0 0 400 420;" xml:space="preserve">
<style type="text/css">
	.st0{fill:none;stroke:#C9CACA;stroke-width:0.3;stroke-miterlimit:10;}
	.st1{fill:#C9CACA;}
	.st2{fill:none;stroke:url(#SVGID_1_);stroke-width:3;stroke-linecap:round;stroke-miterlimit:10;}
	.st3{fill:url(#SVGID_00000067925508923541482590000017822160318680720266_);}
	.st4{fill:none;stroke:#EA5404;stroke-width:0.3;stroke-miterlimit:10;}
	.st5{fill:none;stroke:#9FA0A0;stroke-width:0.2835;stroke-miterlimit:10;}
	.st6{fill:#FFFFFF;stroke:#C9CACA;stroke-width:0.2835;stroke-miterlimit:10;}
	.st7{fill:#3E3A39;}
	.st8{font-family:'Gilroy-SemiBold';}
	.st9{font-size:11.1632px;}
	.st10{fill:#FFFFFF;}
	.st11{font-size:9.3027px;}
	.st12{fill:#F7F8F8;stroke:#C9CACA;stroke-width:0.2835;stroke-miterlimit:10;}
	.st13{fill:none;stroke:#595757;stroke-width:0.5;stroke-miterlimit:10;}
	.st14{fill:#595757;}
	.st15{fill:#FFFFFF;stroke:#595757;stroke-width:0.5;stroke-linecap:round;stroke-linejoin:round;stroke-miterlimit:10;}
	.st16{fill:#B3B3B4;}
	.st17{fill:#EA5404;stroke:#EA5404;stroke-width:0.283;stroke-miterlimit:10;}
	.st18{fill:#FFFFFF;stroke:#C9CACA;stroke-width:0.283;stroke-miterlimit:10;}
	.st19{fill:#F7F8F8;}
	.st20{fill:none;stroke:#EFEFEF;stroke-miterlimit:10;}
	.st21{fill:#FFFFFF;stroke:#DCDDDD;stroke-width:0.3;stroke-miterlimit:10;}
	.st22{fill:#FFFFFF;stroke:#DCDDDD;stroke-miterlimit:10;}
	.st23{fill:none;stroke:#DCDDDD;stroke-width:0.3;stroke-miterlimit:10;}
	.st24{fill:none;stroke:#595757;stroke-width:0.7;stroke-linecap:round;stroke-linejoin:round;stroke-miterlimit:3.3333;}
	.st25{fill:none;}
	.st26{fill:none;stroke:#595757;stroke-width:0.6;stroke-linecap:round;stroke-linejoin:round;stroke-miterlimit:3.3333;}
	.st27{fill:#FFFFFF;stroke:#EA5404;stroke-miterlimit:10;}
	.st28{fill:#EA5404;}
	.st29{fill:#DCDDDD;}
	.st30{fill:#FFFFFF;stroke:#EA5404;stroke-width:0.3;stroke-miterlimit:10;}
	.st31{fill:#FEF7F4;stroke:#F1946C;stroke-width:0.3;stroke-miterlimit:10;}
	.st32{fill:#9FA0A0;}
	.st33{fill:none;stroke:#F1946C;stroke-width:0.3;stroke-miterlimit:10;}
</style>
<path class="st4" d="M185.5,148.9v24.7c0,4.4-3.5,7.9-7.9,7.9h-54.6c-5.8,0-10.5,4.7-10.5,10.5v13.2c0,1.5-1.2,2.6-2.6,2.6h-2.6"/>
<path class="st4" d="M188.1,148.9v24.7c0,5.8-4.7,10.5-10.5,10.5h-54.6c-4.4,0-7.9,3.5-7.9,7.9V229c0,1.5-1.2,2.6-2.6,2.6h-5.3"/>
<path class="st4" d="M182.9,148.9v24.7c0,2.9-2.4,5.3-5.3,5.3H41.8c-1.5,0-2.6,1.2-2.6,2.6v23.7c0,1.5,1.2,2.6,2.6,2.6h2.6h-0.1"/>
<path class="st4" d="M180.2,148.9v24.7c0,1.5-1.2,2.6-2.6,2.6H41.8c-2.9,0-5.3,2.4-5.3,5.3V229c0,1.5,1.2,2.6,2.6,2.6h5.2"/>
<path class="st4" d="M125.5,359h-2.6c-1.5,0-2.6,1.2-2.6,2.6v18.5c0,5.8-4.7,10.5-10.5,10.5H36.5c-8.7,0-15.8-1.8-15.8-10.5v-243
	c0-8.7,7.1-15.8,15.8-15.8h90.4"/>
<path class="st4" d="M125.5,335.2h-5.3c-1.5,0-2.6,1.2-2.6,2.6v42.2c0,4.4-3.5,7.9-7.9,7.9H36.5c-7.3,0-13.2-0.6-13.2-7.9v-243
	c0-7.3,5.9-13.2,13.2-13.2h90.4"/>
<path class="st4" d="M190.8,359h2.6c1.5,0,2.6,1.2,2.6,2.6v29c0,1.5-1.2,2.6-2.6,2.6H36.5c-10.2,0-18.5-3-18.5-13.2v-243
	c0-10.2,8.3-18.5,18.5-18.5h90.4"/>
<path class="st4" d="M44.3,359H33.9c-1.5,0-2.6-1.2-2.6-2.6V137.1c0-2.9,2.4-5.3,5.3-5.3h90.4"/>
<path class="st4" d="M44.3,335.2h-7.8c-1.5,0-2.6-1.2-2.6-2.6V137.1c0-1.5,1.2-2.6,2.6-2.6h90.4"/>
<path class="st4" d="M107.1,359h2.5c1.5,0,2.6,1.2,2.6,2.6v18.5c0,1.5-1.2,2.6-2.6,2.6H34.4c-4.4,0-5.8-0.4-5.8-4.7V137.1
	c0-4.4,3.5-7.9,7.9-7.9h90.4"/>
<path class="st4" d="M107.1,335.2h5.2c1.5,0,2.6,1.2,2.6,2.6v42.2c0,2.9-2.4,5.3-5.3,5.3H36.5c-5.8,0-10.5,0.6-10.5-5.3v-243
	c0-5.8,4.7-10.5,10.5-10.5h90.4"/>
<path class="st4" d="M214.7,148.9v24.7c0,4.4,3.5,7.9,7.9,7.9h54.7c5.8,0,10.5,4.7,10.5,10.5v13.2c0,1.5,1.2,2.6,2.6,2.6h2.6"/>
<path class="st4" d="M212.1,148.9v24.7c0,5.8,4.7,10.5,10.5,10.5h54.7c4.4,0,7.9,3.5,7.9,7.9V229c0,1.5,1.2,2.6,2.6,2.6h5.3"/>
<path class="st4" d="M217.4,148.9v24.7c0,2.9,2.4,5.3,5.3,5.3h135.8c1.5,0,2.6,1.2,2.6,2.6v23.7c0,1.5-1.2,2.6-2.6,2.6h-2.6h0.1"/>
<path class="st4" d="M220,148.9v24.7c0,1.5,1.2,2.6,2.6,2.6h135.8c2.9,0,5.3,2.4,5.3,5.3V229c0,1.5-1.2,2.6-2.6,2.6h-5.2"/>
<g>
	<path class="st4" d="M274.8,358.8h2.6c1.5,0,2.6,1.2,2.6,2.6v18.5c0,5.8,4.7,10.5,10.5,10.5h73.2c8.7,0,15.8-1.8,15.8-10.5V137.1
		c0-8.7-7.1-15.8-15.8-15.8H213.3"/>
	<path class="st4" d="M274.8,335.1h5.3c1.5,0,2.6,1.2,2.6,2.6v42.2c0,4.4,3.5,7.9,7.9,7.9h73.2c7.3,0,13.2-0.6,13.2-7.9V137.1
		c0-7.3-5.9-13.2-13.2-13.2H213.3"/>
	<path class="st4" d="M209.4,358.8h-2.6c-1.5,0-2.6,1.2-2.6,2.6v29c0,1.5,1.2,2.6,2.6,2.6h156.9c10.2,0,18.5-3,18.5-13.2V137.1
		c0-10.2-8.3-18.5-18.5-18.5H213.3"/>
	<path class="st4" d="M209.4,335.1h-5.2c-1.5,0-2.6,1.2-2.6,2.6v52.7c0,2.9,2.4,5.3,5.3,5.3h156.9c11.7,0,21.1-4.2,21.1-15.8V137.1
		c0-11.7-9.4-21.1-21.1-21.1H213.3"/>
	<path class="st4" d="M355.9,358.8h10.5c1.5,0,2.6-1.2,2.6-2.6V137.1c0-2.9-2.4-5.3-5.3-5.3H213.3"/>
	<path class="st4" d="M355.9,335.1h7.8c1.5,0,2.6-1.2,2.6-2.6V137.1c0-1.5-1.2-2.6-2.6-2.6H213.3"/>
	<path class="st4" d="M293.1,358.8h-2.5c-1.5,0-2.6,1.2-2.6,2.6v18.5c0,1.5,1.2,2.6,2.6,2.6h75.3c4.4,0,5.8-0.4,5.8-4.7V137.1
		c0-4.4-3.5-7.9-7.9-7.9H213.3"/>
	<path class="st4" d="M293.1,335.1h-5.2c-1.5,0-2.6,1.2-2.6,2.6v42.2c0,2.9,2.4,5.3,5.3,5.3h73.2c5.8,0,10.5,0.6,10.5-5.3V137.1
		c0-5.8-4.7-10.5-10.5-10.5H213.3"/>
</g>
<line class="st5" x1="74.4" y1="258" x2="74.4" y2="308.9"/>
<line class="st5" x1="158.2" y1="258" x2="158.2" y2="308.9"/>
<line class="st5" x1="242" y1="258" x2="242" y2="308.9"/>
<line class="st5" x1="325.9" y1="258" x2="325.9" y2="308.9"/>
<g>
	<g>
		<path class="st6" d="M296,372.1h59.8c1.6,0,2.8-1.3,2.8-2.8v-57.6c0-1.6-1.3-2.8-2.8-2.8H296c-1.6,0-2.8,1.3-2.8,2.8v57.6
			C293.1,370.9,294.4,372.1,296,372.1z"/>
		<g>
			<text transform="matrix(0.98 0 0 1 312.2604 320.8213)" class="st7 st8 st9">Node</text>
		</g>
		<g>
			<path class="st7" d="M304,345.8h17.9c1.5,0,2.6-1.2,2.6-2.6v-15.8c0-1.5-1.2-2.6-2.6-2.6H304c-1.5,0-2.6,1.2-2.6,2.6v15.8
				C301.3,344.6,302.5,345.8,304,345.8z"/>
			<g>
				<text transform="matrix(0.98 0 0 1 303.6647 338.4991)" class="st10 st8 st11">GPU</text>
			</g>
		</g>
		<g>
			<path class="st7" d="M328.6,345.8H349c0.8,0,1.4-0.6,1.4-1.4v-18.3c0-0.8-0.6-1.4-1.4-1.4h-20.4c-0.8,0-1.4,0.6-1.4,1.4v18.3
				C327.2,345.1,327.8,345.8,328.6,345.8z"/>
			<g>
				<text transform="matrix(0.98 0 0 1 329.5055 338.4991)" class="st10 st8 st11">GPU</text>
			</g>
		</g>
		<g>
			<path class="st7" d="M304,369.5h17.9c1.5,0,2.6-1.2,2.6-2.6V351c0-1.5-1.2-2.6-2.6-2.6H304c-1.5,0-2.6,1.2-2.6,2.6v15.8
				C301.3,368.3,302.5,369.5,304,369.5z"/>
			<g>
				<text transform="matrix(0.98 0 0 1 303.6647 362.2315)" class="st10 st8 st11">GPU</text>
			</g>
		</g>
		<g>
			<path class="st7" d="M328.6,369.5H349c0.8,0,1.4-0.6,1.4-1.4v-18.3c0-0.8-0.6-1.4-1.4-1.4h-20.4c-0.8,0-1.4,0.6-1.4,1.4v18.3
				C327.2,368.9,327.8,369.5,328.6,369.5z"/>
			<g>
				<text transform="matrix(0.98 0 0 1 329.5055 362.2315)" class="st10 st8 st11">GPU</text>
			</g>
		</g>
	</g>
	<g>
		<path class="st6" d="M212.1,372.1h59.8c1.6,0,2.8-1.3,2.8-2.8v-57.6c0-1.6-1.3-2.8-2.8-2.8h-59.8c-1.6,0-2.8,1.3-2.8,2.8v57.6
			C209.3,370.9,210.6,372.1,212.1,372.1z"/>
		<g>
			<text transform="matrix(0.98 0 0 1 228.4411 320.8213)" class="st7 st8 st9">Node</text>
		</g>
		<g>
			<path class="st7" d="M220.1,345.8h17.9c1.5,0,2.6-1.2,2.6-2.6v-15.8c0-1.5-1.2-2.6-2.6-2.6h-17.9c-1.5,0-2.6,1.2-2.6,2.6v15.8
				C217.5,344.6,218.7,345.8,220.1,345.8z"/>
			<g>
				<text transform="matrix(0.98 0 0 1 219.8444 338.4991)" class="st10 st8 st11">GPU</text>
			</g>
		</g>
		<g>
			<path class="st7" d="M244.8,345.8h20.4c0.8,0,1.4-0.6,1.4-1.4v-18.3c0-0.8-0.6-1.4-1.4-1.4h-20.4c-0.8,0-1.4,0.6-1.4,1.4v18.3
				C243.3,345.1,244,345.8,244.8,345.8z"/>
			<g>
				<text transform="matrix(0.98 0 0 1 245.6852 338.4991)" class="st10 st8 st11">GPU</text>
			</g>
		</g>
		<g>
			<path class="st7" d="M220.1,369.5h17.9c1.5,0,2.6-1.2,2.6-2.6V351c0-1.5-1.2-2.6-2.6-2.6h-17.9c-1.5,0-2.6,1.2-2.6,2.6v15.8
				C217.5,368.3,218.7,369.5,220.1,369.5z"/>
			<g>
				<text transform="matrix(0.98 0 0 1 219.8444 362.2315)" class="st10 st8 st11">GPU</text>
			</g>
		</g>
		<g>
			<path class="st7" d="M244.8,369.5h20.4c0.8,0,1.4-0.6,1.4-1.4v-18.3c0-0.8-0.6-1.4-1.4-1.4h-20.4c-0.8,0-1.4,0.6-1.4,1.4v18.3
				C243.3,368.9,244,369.5,244.8,369.5z"/>
			<g>
				<text transform="matrix(0.98 0 0 1 245.6852 362.2315)" class="st10 st8 st11">GPU</text>
			</g>
		</g>
	</g>
	<g>
		<path class="st6" d="M128.3,372.1h59.8c1.6,0,2.8-1.3,2.8-2.8v-57.6c0-1.6-1.3-2.8-2.8-2.8h-59.8c-1.6,0-2.8,1.3-2.8,2.8v57.6
			C125.5,370.9,126.7,372.1,128.3,372.1z"/>
		<g>
			<text transform="matrix(0.98 0 0 1 144.6208 320.8213)" class="st7 st8 st9">Node</text>
		</g>
		<g>
			<path class="st7" d="M136.3,345.8h17.9c1.5,0,2.6-1.2,2.6-2.6v-15.8c0-1.5-1.2-2.6-2.6-2.6h-17.9c-1.5,0-2.6,1.2-2.6,2.6v15.8
				C133.7,344.6,134.9,345.8,136.3,345.8z"/>
			<g>
				<text transform="matrix(0.98 0 0 1 136.0241 338.4991)" class="st10 st8 st11">GPU</text>
			</g>
		</g>
		<g>
			<path class="st7" d="M160.9,345.8h20.4c0.8,0,1.4-0.6,1.4-1.4v-18.3c0-0.8-0.6-1.4-1.4-1.4h-20.4c-0.8,0-1.4,0.6-1.4,1.4v18.3
				C159.5,345.1,160.2,345.8,160.9,345.8z"/>
			<g>
				<text transform="matrix(0.98 0 0 1 161.8649 338.4991)" class="st10 st8 st11">GPU</text>
			</g>
		</g>
		<g>
			<path class="st7" d="M136.3,369.5h17.9c1.5,0,2.6-1.2,2.6-2.6V351c0-1.5-1.2-2.6-2.6-2.6h-17.9c-1.5,0-2.6,1.2-2.6,2.6v15.8
				C133.7,368.3,134.9,369.5,136.3,369.5z"/>
			<g>
				<text transform="matrix(0.98 0 0 1 136.0241 362.2315)" class="st10 st8 st11">GPU</text>
			</g>
		</g>
		<g>
			<path class="st7" d="M160.9,369.5h20.4c0.8,0,1.4-0.6,1.4-1.4v-18.3c0-0.8-0.6-1.4-1.4-1.4h-20.4c-0.8,0-1.4,0.6-1.4,1.4v18.3
				C159.5,368.9,160.2,369.5,160.9,369.5z"/>
			<g>
				<text transform="matrix(0.98 0 0 1 161.8649 362.2315)" class="st10 st8 st11">GPU</text>
			</g>
		</g>
	</g>
	<g>
		<path class="st6" d="M44.5,372.1h59.8c1.6,0,2.8-1.3,2.8-2.8v-57.6c0-1.6-1.3-2.8-2.8-2.8H44.5c-1.6,0-2.8,1.3-2.8,2.8v57.6
			C41.7,370.9,42.9,372.1,44.5,372.1z"/>
		<g>
			<text transform="matrix(0.98 0 0 1 60.8004 320.8213)" class="st7 st8 st9">Node</text>
		</g>
		<g>
			<path class="st7" d="M52.5,345.8h17.9c1.5,0,2.6-1.2,2.6-2.6v-15.8c0-1.5-1.2-2.6-2.6-2.6H52.5c-1.5,0-2.6,1.2-2.6,2.6v15.8
				C49.9,344.6,51,345.8,52.5,345.8z"/>
			<g>
				<text transform="matrix(0.98 0 0 1 52.2047 338.4991)" class="st10 st8 st11">GPU</text>
			</g>
		</g>
		<g>
			<path class="st7" d="M77.1,345.8h20.4c0.8,0,1.4-0.6,1.4-1.4v-18.3c0-0.8-0.6-1.4-1.4-1.4H77.1c-0.8,0-1.4,0.6-1.4,1.4v18.3
				C75.7,345.1,76.3,345.8,77.1,345.8z"/>
			<g>
				<text transform="matrix(0.98 0 0 1 78.0446 338.4991)" class="st10 st8 st11">GPU</text>
			</g>
		</g>
		<g>
			<path class="st7" d="M52.5,369.5h17.9c1.5,0,2.6-1.2,2.6-2.6V351c0-1.5-1.2-2.6-2.6-2.6H52.5c-1.5,0-2.6,1.2-2.6,2.6v15.8
				C49.9,368.3,51,369.5,52.5,369.5z"/>
			<g>
				<text transform="matrix(0.98 0 0 1 52.2047 362.2315)" class="st10 st8 st11">GPU</text>
			</g>
		</g>
		<g>
			<path class="st7" d="M77.1,369.5h20.4c0.8,0,1.4-0.6,1.4-1.4v-18.3c0-0.8-0.6-1.4-1.4-1.4H77.1c-0.8,0-1.4,0.6-1.4,1.4v18.3
				C75.7,368.9,76.3,369.5,77.1,369.5z"/>
			<g>
				<text transform="matrix(0.98 0 0 1 78.0446 362.2315)" class="st10 st8 st11">GPU</text>
			</g>
		</g>
	</g>
</g>
<path class="st4" d="M204.2,148.9v56.3c0,1.5,1.2,2.6,2.6,2.6h2.6"/>
<path class="st4" d="M201.6,148.9V229c0,1.5,1.2,2.6,2.6,2.6h5.3"/>
<path class="st4" d="M206.8,148.9v24.7c0,8.7,7.1,15.8,15.8,15.8h54.7c1.5,0,2.6,1.2,2.6,2.6v13.2c0,1.5-1.2,2.6-2.6,2.6h-2.6h0.1"
	/>
<path class="st4" d="M209.5,148.9v24.7c0,7.3,5.9,13.2,13.2,13.2h54.7c2.9,0,5.3,2.4,5.3,5.3V229c0,1.5-1.2,2.6-2.6,2.6h-5.2"/>
<g>
	<g>
		<path class="st6" d="M355.7,194.7H296c-1.6,0-2.8,1.3-2.8,2.8v57.6c0,1.6,1.3,2.8,2.8,2.8h59.8c1.6,0,2.8-1.3,2.8-2.8v-57.6
			C358.6,196,357.3,194.7,355.7,194.7z"/>
		<g>
			<text transform="matrix(0.98 0 0 1 312.2526 253.917)" class="st7 st8 st9">Node</text>
		</g>
		<g>
			<path class="st7" d="M304,218.4h17.9c1.5,0,2.6-1.2,2.6-2.6V200c0-1.5-1.2-2.6-2.6-2.6H304c-1.5,0-2.6,1.2-2.6,2.6v15.8
				C301.3,217.3,302.5,218.4,304,218.4z"/>
			<g>
				<text transform="matrix(0.98 0 0 1 303.6794 211.1646)" class="st10 st8 st11">GPU</text>
			</g>
		</g>
		<g>
			<path class="st7" d="M328.6,218.4H349c0.8,0,1.4-0.6,1.4-1.4v-18.3c0-0.8-0.6-1.4-1.4-1.4h-20.4c-0.8,0-1.4,0.6-1.4,1.4V217
				C327.2,217.8,327.8,218.4,328.6,218.4z"/>
			<g>
				<text transform="matrix(0.98 0 0 1 329.5182 211.1646)" class="st10 st8 st11">GPU</text>
			</g>
		</g>
		<g>
			<path class="st7" d="M304,242.2h17.9c1.5,0,2.6-1.2,2.6-2.6v-15.8c0-1.5-1.2-2.6-2.6-2.6H304c-1.5,0-2.6,1.2-2.6,2.6v15.8
				C301.3,241,302.5,242.2,304,242.2z"/>
			<g>
				<text transform="matrix(0.98 0 0 1 303.6794 234.8975)" class="st10 st8 st11">GPU</text>
			</g>
		</g>
		<g>
			<path class="st7" d="M328.6,242.2H349c0.8,0,1.4-0.6,1.4-1.4v-18.3c0-0.8-0.6-1.4-1.4-1.4h-20.4c-0.8,0-1.4,0.6-1.4,1.4v18.3
				C327.2,241.5,327.8,242.2,328.6,242.2z"/>
			<g>
				<text transform="matrix(0.98 0 0 1 329.5182 234.8975)" class="st10 st8 st11">GPU</text>
			</g>
		</g>
	</g>
	<g>
		<path class="st6" d="M271.9,194.7h-59.8c-1.6,0-2.8,1.3-2.8,2.8v57.6c0,1.6,1.3,2.8,2.8,2.8h59.8c1.6,0,2.8-1.3,2.8-2.8v-57.6
			C274.8,196,273.5,194.7,271.9,194.7z"/>
		<g>
			<text transform="matrix(0.98 0 0 1 228.4323 253.917)" class="st7 st8 st9">Node</text>
		</g>
		<g>
			<path class="st7" d="M220.1,218.4h17.9c1.5,0,2.6-1.2,2.6-2.6V200c0-1.5-1.2-2.6-2.6-2.6h-17.9c-1.5,0-2.6,1.2-2.6,2.6v15.8
				C217.5,217.3,218.7,218.4,220.1,218.4z"/>
			<g>
				<text transform="matrix(0.98 0 0 1 219.859 211.1646)" class="st10 st8 st11">GPU</text>
			</g>
		</g>
		<g>
			<path class="st7" d="M244.8,218.4h20.4c0.8,0,1.4-0.6,1.4-1.4v-18.3c0-0.8-0.6-1.4-1.4-1.4h-20.4c-0.8,0-1.4,0.6-1.4,1.4V217
				C243.3,217.8,244,218.4,244.8,218.4z"/>
			<g>
				<text transform="matrix(0.98 0 0 1 245.6989 211.1646)" class="st10 st8 st11">GPU</text>
			</g>
		</g>
		<g>
			<path class="st7" d="M220.1,242.2h17.9c1.5,0,2.6-1.2,2.6-2.6v-15.8c0-1.5-1.2-2.6-2.6-2.6h-17.9c-1.5,0-2.6,1.2-2.6,2.6v15.8
				C217.5,241,218.7,242.2,220.1,242.2z"/>
			<g>
				<text transform="matrix(0.98 0 0 1 219.859 234.8975)" class="st10 st8 st11">GPU</text>
			</g>
		</g>
		<g>
			<path class="st7" d="M244.8,242.2h20.4c0.8,0,1.4-0.6,1.4-1.4v-18.3c0-0.8-0.6-1.4-1.4-1.4h-20.4c-0.8,0-1.4,0.6-1.4,1.4v18.3
				C243.3,241.5,244,242.2,244.8,242.2z"/>
			<g>
				<text transform="matrix(0.98 0 0 1 245.6989 234.8975)" class="st10 st8 st11">GPU</text>
			</g>
		</g>
	</g>
	<g>
		<path class="st6" d="M188.1,194.7h-59.8c-1.6,0-2.8,1.3-2.8,2.8v57.6c0,1.6,1.3,2.8,2.8,2.8h59.8c1.6,0,2.8-1.3,2.8-2.8v-57.6
			C190.9,196,189.7,194.7,188.1,194.7z"/>
		<g>
			<text transform="matrix(0.98 0 0 1 144.6139 253.917)" class="st7 st8 st9">Node</text>
		</g>
		<g>
			<path class="st7" d="M136.3,218.4h17.9c1.5,0,2.6-1.2,2.6-2.6V200c0-1.5-1.2-2.6-2.6-2.6h-17.9c-1.5,0-2.6,1.2-2.6,2.6v15.8
				C133.7,217.3,134.9,218.4,136.3,218.4z"/>
			<g>
				<text transform="matrix(0.98 0 0 1 136.0387 211.1646)" class="st10 st8 st11">GPU</text>
			</g>
		</g>
		<g>
			<path class="st7" d="M160.9,218.4h20.4c0.8,0,1.4-0.6,1.4-1.4v-18.3c0-0.8-0.6-1.4-1.4-1.4h-20.4c-0.8,0-1.4,0.6-1.4,1.4V217
				C159.5,217.8,160.2,218.4,160.9,218.4z"/>
			<g>
				<text transform="matrix(0.98 0 0 1 161.8786 211.1646)" class="st10 st8 st11">GPU</text>
			</g>
		</g>
		<g>
			<path class="st7" d="M136.3,242.2h17.9c1.5,0,2.6-1.2,2.6-2.6v-15.8c0-1.5-1.2-2.6-2.6-2.6h-17.9c-1.5,0-2.6,1.2-2.6,2.6v15.8
				C133.7,241,134.9,242.2,136.3,242.2z"/>
			<g>
				<text transform="matrix(0.98 0 0 1 136.0387 234.8975)" class="st10 st8 st11">GPU</text>
			</g>
		</g>
		<g>
			<path class="st7" d="M160.9,242.2h20.4c0.8,0,1.4-0.6,1.4-1.4v-18.3c0-0.8-0.6-1.4-1.4-1.4h-20.4c-0.8,0-1.4,0.6-1.4,1.4v18.3
				C159.5,241.5,160.2,242.2,160.9,242.2z"/>
			<g>
				<text transform="matrix(0.98 0 0 1 161.8786 234.8975)" class="st10 st8 st11">GPU</text>
			</g>
		</g>
	</g>
	<g>
		<path class="st6" d="M104.3,194.7H44.5c-1.6,0-2.8,1.3-2.8,2.8v57.6c0,1.6,1.3,2.8,2.8,2.8h59.8c1.6,0,2.8-1.3,2.8-2.8v-57.6
			C107.1,196,105.9,194.7,104.3,194.7z"/>
		<g>
			<text transform="matrix(0.98 0 0 1 60.7926 253.917)" class="st7 st8 st9">Node</text>
		</g>
		<g>
			<path class="st7" d="M52.5,218.4h17.9c1.5,0,2.6-1.2,2.6-2.6V200c0-1.5-1.2-2.6-2.6-2.6H52.5c-1.5,0-2.6,1.2-2.6,2.6v15.8
				C49.9,217.3,51,218.4,52.5,218.4z"/>
			<g>
				<text transform="matrix(0.98 0 0 1 52.2184 211.1646)" class="st10 st8 st11">GPU</text>
			</g>
		</g>
		<g>
			<path class="st7" d="M77.1,218.4h20.4c0.8,0,1.4-0.6,1.4-1.4v-18.3c0-0.8-0.6-1.4-1.4-1.4H77.1c-0.8,0-1.4,0.6-1.4,1.4V217
				C75.7,217.8,76.3,218.4,77.1,218.4z"/>
			<g>
				<text transform="matrix(0.98 0 0 1 78.0592 211.1646)" class="st10 st8 st11">GPU</text>
			</g>
		</g>
		<g>
			<path class="st7" d="M52.5,242.2h17.9c1.5,0,2.6-1.2,2.6-2.6v-15.8c0-1.5-1.2-2.6-2.6-2.6H52.5c-1.5,0-2.6,1.2-2.6,2.6v15.8
				C49.9,241,51,242.2,52.5,242.2z"/>
			<g>
				<text transform="matrix(0.98 0 0 1 52.2184 234.8975)" class="st10 st8 st11">GPU</text>
			</g>
		</g>
		<g>
			<path class="st7" d="M77.1,242.2h20.4c0.8,0,1.4-0.6,1.4-1.4v-18.3c0-0.8-0.6-1.4-1.4-1.4H77.1c-0.8,0-1.4,0.6-1.4,1.4v18.3
				C75.7,241.5,76.3,242.2,77.1,242.2z"/>
			<g>
				<text transform="matrix(0.98 0 0 1 78.0592 234.8975)" class="st10 st8 st11">GPU</text>
			</g>
		</g>
	</g>
</g>
<g>
	<path class="st12" d="M358.6,274.6v15.9c0,1.6-1.3,2.8-2.8,2.8H44.5c-1.6,0-2.8-1.3-2.8-2.8v-15.9c0-1.6,1.3-2.8,2.8-2.8h311.3
		C357.3,271.7,358.6,273,358.6,274.6z"/>
	<g>
		<text transform="matrix(0.98 0 0 1 137.567 285.7842)" class="st7 st8 st9">Interconnection Network</text>
	</g>
</g>
<path class="st4" d="M196,148.9v56.3c0,1.5-1.2,2.6-2.6,2.6h-2.6"/>
<path class="st4" d="M198.7,148.9V229c0,1.5-1.2,2.6-2.6,2.6h-5.3"/>
<path class="st4" d="M193.4,148.9v24.7c0,8.7-7.1,15.8-15.8,15.8h-54.6c-1.5,0-2.6,1.2-2.6,2.6v13.2c0,1.5,1.2,2.6,2.6,2.6h2.6h-0.1
	"/>
<path class="st4" d="M190.8,148.9v24.7c0,7.3-5.9,13.2-13.2,13.2h-54.6c-2.9,0-5.3,2.4-5.3,5.3V229c0,1.5,1.2,2.6,2.6,2.6h5.2"/>
<g>
	<g>
		<g>
			<line class="st13" x1="200.1" y1="66" x2="200.1" y2="80.8"/>
			<g>
				<polygon class="st14" points="198.9,80.4 200.1,82.6 201.4,80.4 				"/>
			</g>
		</g>
	</g>
	<g>
		<path class="st15" d="M185.8,65.4v-8.9c0-1.5,0.9-3,2.3-3.6l4.9-2.3l4.2,4.5l2-2.8h1.7l2,2.8l4.2-4.5l4.9,2.3
			c1.4,0.7,2.3,2.1,2.3,3.6v8.9"/>
		<polygon class="st15" points="203,49.3 200.1,51.2 197.2,49.3 197.2,44.6 203,44.6 		"/>
		<path class="st15" d="M206.9,36.7l0.1-2c0.2-3.8-2.8-7-6.7-7h-0.5c-3.8,0-6.8,3.2-6.7,7l0.1,2c-0.8,0.1-1.4,0.8-1.4,1.6l0,0.9
			c0,0.9,0.7,1.5,1.6,1.5c0.5,3.2,3.3,5.6,6.6,5.6h0c3.3,0,6-2.4,6.6-5.6c0.9,0,1.6-0.7,1.6-1.5l0-0.9
			C208.4,37.5,207.7,36.8,206.9,36.7z"/>
		<path class="st15" d="M204.8,27.5C204.7,27.5,204.7,27.5,204.8,27.5c-0.2-0.1-0.4-0.2-0.5-0.2c0,0,0,0-0.1,0
			c-0.2-0.1-0.3-0.1-0.5-0.2c0,0-0.1,0-0.1,0c-0.2,0-0.3-0.1-0.5-0.1c0,0-0.1,0-0.1,0c-0.2,0-0.3-0.1-0.5-0.1c0,0,0,0-0.1,0
			c-0.2,0-0.4-0.1-0.6-0.1c-0.1,0-0.1,0-0.2,0c-0.2,0-0.3,0-0.5,0c-0.1,0-0.1,0-0.2,0c-0.2,0-0.5,0-0.7,0h-7.3c0,0-0.4,1.5,0.3,3
			c-0.9,1.4-1.2,3.2-1.2,5.1c0,1,0.2,1.9,0.5,2.7l0.9-0.6c0,0,1.9-0.3,2.5-2.5c0.5-2,0.5-2.2,0.4-2.2l0,0h1.3h5.3h1.3
			c0,0-0.1,0,0.4,2.2c0.5,2.2,2.5,2.5,2.5,2.5l0.9,0.6c0.3-0.8,0.5-1.8,0.5-2.7C208.3,31.6,207.5,28.9,204.8,27.5z"/>
		<polygon class="st15" points="199.4,51.2 200.8,51.2 202.5,53.9 200.1,57 197.7,53.9 		"/>
		<polygon class="st15" points="200.1,51.2 200.1,52.3 199.3,52.3 197.2,55.1 193.1,50.6 195.7,48.1 197.2,48.1 197.2,49.3 
			199.2,50.6 		"/>
		<polygon class="st15" points="207.2,50.6 203,55.1 201,52.3 200.1,52.3 200.1,51.2 201.1,50.6 203,49.3 203,48.1 204.6,48.1 		"/>
		<line class="st15" x1="191.1" y1="65.4" x2="191.1" y2="62.9"/>
		<line class="st15" x1="209.2" y1="65.4" x2="209.2" y2="62.9"/>
		<path class="st16" d="M207.2,35c0,0.6-0.1,1.2-0.2,1.8l-0.1,0c0,0-1.9-0.3-2.5-2.5c-0.5-2.2-0.4-2.2-0.4-2.2h-7.8c0,0,0,0,0,0.3
			c0,0.3-0.2,0.8-0.4,1.9c-0.5,2.2-2.5,2.5-2.5,2.5l-0.9,0.6c0-0.1-0.1-0.2-0.1-0.4c-0.2-0.7-0.4-1.5-0.4-2.3c0-1.9,0.3-3.7,1.2-5.1
			c-0.6-1.1-0.5-2.2-0.4-2.7h6.3c0.2,0,0.5,0,0.7,0c0.1,0,0.1,0,0.2,0c0.2,0,0.4,0,0.5,0c0.1,0,0.1,0,0.2,0c0.2,0,0.4,0.1,0.6,0.1
			c0,0,0,0,0.1,0c0.2,0,0.4,0.1,0.5,0.1c0.1,0,0.1,0,0.1,0c0.2,0,0.3,0.1,0.5,0.1c0,0,0.1,0,0.1,0c0.2,0.1,0.4,0.1,0.5,0.2
			c0,0,0,0,0.1,0c0.1,0.1,0.3,0.1,0.4,0.2c0,0,0.1,0,0.1,0C206.4,29.1,207.2,31.8,207.2,35z"/>
	</g>
	<g>
		<path class="st6" d="M268.3,167.4H131.9c-3.1,0-5.7-2.5-5.7-5.7v-73c0-3.1,2.5-5.7,5.7-5.7h136.4c3.1,0,5.7,2.5,5.7,5.7v73
			C274,164.8,271.4,167.4,268.3,167.4z"/>
		<g>
			<path class="st17" d="M260.6,156.8H139.7c-1.6,0-2.8-1.3-2.8-2.8v-20.7c0-1.6,1.3-2.8,2.8-2.8h120.9c1.6,0,2.8,1.3,2.8,2.8V154
				C263.4,155.6,262.1,156.8,260.6,156.8z"/>
			<g>
				<text transform="matrix(0.98 0 0 1 147.9606 146.9722)" class="st10 st8 st9">Single Virtual Device</text>
			</g>
		</g>
		<g>
			<path class="st18" d="M260.6,119.9H139.7c-1.6,0-2.8-1.3-2.8-2.8V96.4c0-1.6,1.3-2.8,2.8-2.8h120.9c1.6,0,2.8,1.3,2.8,2.8v20.7
				C263.4,118.6,262.1,119.9,260.6,119.9z"/>
			<g>
				<g>
					<text transform="matrix(0.98 0 0 1 185.0563 110.0943)"><tspan x="0" y="0" class="st7 st8 st9">P</tspan><tspan x="6.6" y="0" class="st7 st8 st9">y</tspan><tspan x="11.9" y="0" class="st7 st8 st9">Torch</tspan></text>
				</g>
				
					<image style="overflow:visible;" width="300" height="300" xlink:href="5A03C546435A3258.png"  transform="matrix(7.507641e-02 0 0 7.507641e-02 159.5232 95.6328)">
				</image>
			</g>
		</g>
		<g>
			<g>
				<line class="st13" x1="200.1" y1="119.9" x2="200.1" y2="128.7"/>
				<g>
					<polygon class="st14" points="198.9,128.3 200.1,130.5 201.4,128.3 					"/>
				</g>
			</g>
		</g>
	</g>
	<line class="st13" x1="185.8" y1="65.6" x2="214.4" y2="65.6"/>
</g>
</svg>
