<?xml version="1.0" encoding="utf-8"?>
<!-- Generator: Adobe Illustrator 28.3.0, SVG Export Plug-In . SVG Version: 6.00 Build 0)  -->
<svg version="1.1" id="Layer_1" xmlns="http://www.w3.org/2000/svg" xmlns:xlink="http://www.w3.org/1999/xlink" x="0px" y="0px"
	 viewBox="0 0 400 420" style="enable-background:new 0 0 400 420;" xml:space="preserve">
<style type="text/css">
	.st0{fill:none;stroke:#C9CACA;stroke-width:0.3;stroke-miterlimit:10;}
	.st1{fill:#C9CACA;}
	.st2{fill:none;stroke:url(#SVGID_1_);stroke-width:3;stroke-linecap:round;stroke-miterlimit:10;}
	.st3{fill:url(#SVGID_00000173851610315273441800000005162848675101307557_);}
	.st4{fill:none;stroke:#EA5404;stroke-width:0.3;stroke-miterlimit:10;}
	.st5{fill:none;stroke:#9FA0A0;stroke-width:0.2835;stroke-miterlimit:10;}
	.st6{fill:#FFFFFF;stroke:#C9CACA;stroke-width:0.2835;stroke-miterlimit:10;}
	.st7{fill:#3E3A39;}
	.st8{fill:#F7F8F8;stroke:#C9CACA;stroke-width:0.2835;stroke-miterlimit:10;}
	.st9{fill:none;stroke:#595757;stroke-width:0.5;stroke-miterlimit:10;}
	.st10{fill:#595757;}
	.st11{fill:#FFFFFF;stroke:#595757;stroke-width:0.5;stroke-linecap:round;stroke-linejoin:round;stroke-miterlimit:10;}
	.st12{fill:#B3B3B4;}
	.st13{fill:#EA5404;stroke:#EA5404;stroke-width:0.283;stroke-miterlimit:10;}
	.st14{fill:#FFFFFF;stroke:#C9CACA;stroke-width:0.283;stroke-miterlimit:10;}
	.st15{fill:#F7F8F8;}
	.st16{fill:none;stroke:#EFEFEF;stroke-miterlimit:10;}
	.st17{fill:#FFFFFF;stroke:#DCDDDD;stroke-width:0.3;stroke-miterlimit:10;}
	.st18{fill:#FFFFFF;stroke:#DCDDDD;stroke-miterlimit:10;}
	.st19{fill:none;stroke:#DCDDDD;stroke-width:0.3;stroke-miterlimit:10;}
	.st20{fill:none;stroke:#595757;stroke-width:0.7;stroke-linecap:round;stroke-linejoin:round;stroke-miterlimit:3.3333;}
	.st21{fill:none;}
	.st22{fill:none;stroke:#595757;stroke-width:0.6;stroke-linecap:round;stroke-linejoin:round;stroke-miterlimit:3.3333;}
	.st23{fill:#FFFFFF;stroke:#EA5404;stroke-miterlimit:10;}
	.st24{fill:#EA5404;}
	.st25{fill:#FFFFFF;}
	.st26{fill:#DCDDDD;}
	.st27{fill:#FFFFFF;stroke:#EA5404;stroke-width:0.3;stroke-miterlimit:10;}
	.st28{fill:#FEF7F4;stroke:#F1946C;stroke-width:0.3;stroke-miterlimit:10;}
	.st29{fill:#9FA0A0;}
	.st30{font-family:'Gilroy-SemiBold';}
	.st31{font-size:11.5673px;}
	.st32{font-size:13.0132px;}
	.st33{fill:none;stroke:#F1946C;stroke-width:0.3;stroke-miterlimit:10;}
	.st34{font-family:'Gilroy-Medium';}
	.st35{font-size:7.4445px;}
</style>
<g>
	<line class="st23" x1="201.5" y1="154.7" x2="201.5" y2="195.3"/>
	<line class="st28" x1="201.5" y1="282.9" x2="201.5" y2="323.6"/>
	<g>
		<g>
			<line class="st5" x1="201.3" y1="67.4" x2="201.3" y2="124.1"/>
			<g>
				<polygon class="st29" points="200.6,123.9 201.3,125.1 202.1,123.9 				"/>
			</g>
		</g>
	</g>
	<path class="st6" d="M282.7,112.4H120c-1.6,0-2.8-1.3-2.8-2.8v-17c0-1.6,1.3-2.8,2.8-2.8h162.6c1.6,0,2.8,1.3,2.8,2.8v17
		C285.5,111.1,284.2,112.4,282.7,112.4z"/>
	<g>
		<text transform="matrix(0.98 0 0 1 147.8392 104.8351)" class="st7 st30 st31">PyTorch/TensorFlow</text>
	</g>
	<path class="st28" d="M282.7,284H120c-1.6,0-2.8-1.3-2.8-2.8V184c0-1.6,1.3-2.8,2.8-2.8h162.6c1.6,0,2.8,1.3,2.8,2.8v97.2
		C285.5,282.8,284.2,284,282.7,284z"/>
	<g>
		<g>
			<g>
				<g>
					<path d="M179.3,228.5h1.2l0.6-7.3h-1.2v-1h2.6l2.4,5.7c0.1,0.4,0.2,0.7,0.2,0.7h0c0,0,0.1-0.3,0.2-0.7l2.4-5.7h2.6v1h-1.2
						l0.6,7.3h1.2v1h-3.6v-1h1.1l-0.4-5.6c0-0.3,0-0.8,0-0.8h0c0,0-0.1,0.4-0.2,0.7l-2.1,4.9h-1.2l-2.1-4.9
						c-0.1-0.3-0.2-0.7-0.2-0.7h0c0,0,0.1,0.5,0,0.8l-0.4,5.6h1.1v1h-3.6V228.5z"/>
					<path d="M201.5,228.5h1.2v-7.3h-1.2v-1h4c0.7,0,1.2,0,1.7,0.2c1,0.3,1.6,1.2,1.6,2.4c0,1.3-0.7,2.3-1.9,2.6v0
						c0,0,0.2,0.1,0.4,0.4l1.3,2.3c0.1,0.3,0.3,0.3,0.6,0.3h0.3v1h-0.8c-0.8,0-1-0.1-1.3-0.7l-1.4-2.6c-0.2-0.4-0.4-0.5-1-0.5H204
						v2.7h1.2v1h-3.6V228.5z M205.9,224.7c1,0,1.7-0.7,1.7-1.8c0-0.7-0.3-1.2-0.9-1.5c-0.3-0.1-0.7-0.2-1.2-0.2H204v3.4H205.9z"/>
					<polygon points="210.5,228.5 211.6,228.5 211.6,221.2 210.5,221.2 210.5,220.2 217.2,220.2 217.2,222.4 216.1,222.4 
						216.1,221.3 213,221.3 213,224.3 216.3,224.3 216.3,225.4 213,225.4 213,228.5 216.3,228.5 216.3,227.3 217.5,227.3 
						217.5,229.5 210.5,229.5 					"/>
					<polygon points="218.6,228.5 219.7,228.5 219.7,221.2 218.6,221.2 218.6,220.2 222.2,220.2 222.2,221.2 221.1,221.2 
						221.1,224.3 225.9,224.3 225.9,221.2 224.7,221.2 224.7,220.2 228.4,220.2 228.4,221.2 227.2,221.2 227.2,228.5 228.4,228.5 
						228.4,229.5 224.7,229.5 224.7,228.5 225.9,228.5 225.9,225.4 221.1,225.4 221.1,228.5 222.2,228.5 222.2,229.5 218.6,229.5 
											"/>
					<rect x="196.3" y="217.5" class="st24" width="1.2" height="1.2"/>
					<path class="st24" d="M197.6,221v-1h-1.2c-2.7,0-5,2.2-5,5c0,2.7,2.2,5,5,5h1.2v-0.6v-0.6h1.2v-0.7v-0.5h1.2v-1.2v-1.2v-1.2
						v-1.2h-1.2v-0.6v-0.6h-1.2V221z"/>
					<rect x="198.8" y="219.9" class="st24" width="1.2" height="1.2"/>
					<rect x="200" y="218.7" class="st24" width="1.2" height="1.2"/>
				</g>
				<g>
					<text transform="matrix(0.98 0 0 1 166.9027 242.964)" class="st30 st31">MoAI Platform</text>
				</g>
			</g>
		</g>
	</g>
	<path class="st13" d="M282.7,159.7H120c-1.6,0-2.8-1.3-2.8-2.8v-31c0-1.6,1.3-2.8,2.8-2.8h162.6c1.6,0,2.8,1.3,2.8,2.8v31
		C285.5,158.4,284.2,159.7,282.7,159.7z"/>
	<g>
		<text transform="matrix(0.98 0 0 1 132.5658 145.9903)" class="st25 st30 st32">Single GPU Abstraction</text>
	</g>
	<path class="st6" d="M282.7,79.9H120c-1.6,0-2.8-1.3-2.8-2.8V60c0-1.6,1.3-2.8,2.8-2.8h162.6c1.6,0,2.8,1.3,2.8,2.8v17
		C285.5,78.6,284.2,79.9,282.7,79.9z"/>
	<g>
		<text transform="matrix(0.98 0 0 1 161.9135 71.9884)" class="st7 st30 st31">AI Applications</text>
	</g>
	<path class="st33" d="M254.3,330.6v-3.3c0-1.8-1.3-3.3-3-3.3l-46.4,0h-8.1l-46.4,0c-1.6,0-3,1.5-3,3.3v3.3"/>
	<g>
		<path class="st25" d="M122.9,374.7c-3,0-5.4-2.4-5.4-5.4v-33.1c0-3,2.4-5.4,5.4-5.4h49.8c3,0,5.4,2.4,5.4,5.4v33.1
			c0,3-2.4,5.4-5.4,5.4H122.9z"/>
		<path class="st26" d="M172.7,331c2.9,0,5.2,2.3,5.2,5.2v33.1c0,2.9-2.3,5.2-5.2,5.2h-49.8c-2.9,0-5.2-2.3-5.2-5.2v-33.1
			c0-2.9,2.3-5.2,5.2-5.2H172.7 M172.7,330.5h-49.8c-3.1,0-5.7,2.5-5.7,5.7v33.1c0,3.1,2.5,5.7,5.7,5.7h49.8c3.1,0,5.7-2.5,5.7-5.7
			v-33.1C178.4,333.1,175.8,330.5,172.7,330.5L172.7,330.5z"/>
	</g>
	<g>
		<text transform="matrix(0.98 0 0 1 140.3588 368.4161)" class="st7 st34 st35">GPU</text>
	</g>
	<g>
		<g>
			<path class="st10" d="M136.9,354.3c-0.2,0-0.4-0.2-0.4-0.4v-12.8h-0.8c-0.2,0-0.4-0.2-0.4-0.4c0-0.2,0.2-0.4,0.4-0.4h1.1
				c0.2,0,0.4,0.2,0.4,0.4V354C137.3,354.2,137.1,354.3,136.9,354.3z"/>
		</g>
		<g>
			<path class="st10" d="M136.9,345.9h-1.1c-0.2,0-0.4-0.2-0.4-0.4v-2.1c0-0.2,0.2-0.4,0.4-0.4h1.1c0.2,0,0.4,0.2,0.4,0.4v2.1
				C137.3,345.7,137.1,345.9,136.9,345.9z M136.2,345.2h0.4v-1.4h-0.4V345.2z"/>
		</g>
		<g>
			<path class="st10" d="M136.9,352.1h-1.1c-0.2,0-0.4-0.2-0.4-0.4v-5c0-0.2,0.2-0.4,0.4-0.4h1.1c0.2,0,0.4,0.2,0.4,0.4v5
				C137.3,352,137.1,352.1,136.9,352.1z M136.2,351.4h0.4v-4.3h-0.4V351.4z"/>
		</g>
		<g>
			<g>
				<path class="st10" d="M153.8,351.9c-2.8,0-5.1-2.3-5.1-5.1c0-2.8,2.3-5.1,5.1-5.1s5.1,2.3,5.1,5.1
					C158.8,349.7,156.6,351.9,153.8,351.9z M153.8,342.5c-2.4,0-4.4,2-4.4,4.4c0,2.4,2,4.4,4.4,4.4c2.4,0,4.4-2,4.4-4.4
					C158.1,344.5,156.2,342.5,153.8,342.5z"/>
			</g>
			<g>
				<g>
					<path class="st10" d="M153.8,345.8c-0.2,0-0.4-0.2-0.4-0.4c0-1.2-1-2.2-2.2-2.2c-0.2,0-0.4-0.2-0.4-0.4s0.2-0.4,0.4-0.4
						c1.6,0,2.9,1.3,2.9,2.9C154.1,345.7,154,345.8,153.8,345.8z"/>
				</g>
			</g>
			<g>
				<g>
					<path class="st10" d="M154.7,346.1c-0.1,0-0.2,0-0.2-0.1c-0.2-0.1-0.2-0.3,0-0.5c0.8-0.9,0.7-2.3-0.3-3.1
						c-0.2-0.1-0.2-0.3,0-0.5s0.3-0.2,0.5,0c1.2,1,1.4,2.9,0.4,4.1C154.9,346.1,154.8,346.1,154.7,346.1z"/>
				</g>
			</g>
			<g>
				<g>
					<path class="st10" d="M155.1,347c-0.2,0-0.3-0.1-0.3-0.3c0-0.2,0.1-0.4,0.3-0.4c0.6-0.1,1.1-0.4,1.4-0.9s0.5-1.1,0.4-1.6
						c0-0.2,0.1-0.4,0.3-0.4c0.2,0,0.4,0.1,0.4,0.3c0.1,0.8,0,1.5-0.5,2.2C156.6,346.4,156,346.8,155.1,347
						C155.2,347,155.2,347,155.1,347z"/>
				</g>
			</g>
			<g>
				<g>
					<path class="st10" d="M156.2,348.3c-0.5,0-1-0.1-1.4-0.4c-0.2-0.1-0.2-0.3-0.1-0.5c0.1-0.2,0.3-0.2,0.5-0.1
						c0.5,0.3,1.1,0.4,1.7,0.2c0.6-0.2,1-0.5,1.3-1c0.1-0.2,0.3-0.2,0.5-0.1c0.2,0.1,0.2,0.3,0.1,0.5c-0.4,0.7-1,1.1-1.8,1.3
						C156.8,348.2,156.5,348.3,156.2,348.3z"/>
				</g>
			</g>
			<g>
				<g>
					<path class="st10" d="M156.6,350.2c-0.4,0-0.8-0.1-1.2-0.3c-0.7-0.3-1.2-0.9-1.5-1.6c-0.1-0.2,0-0.4,0.2-0.4
						c0.2-0.1,0.4,0,0.4,0.2c0.2,0.6,0.6,1,1.1,1.2c0.5,0.2,1.1,0.3,1.7,0.1c0.2-0.1,0.4,0,0.4,0.2c0.1,0.2,0,0.4-0.2,0.4
						C157.3,350.2,157,350.2,156.6,350.2z"/>
				</g>
			</g>
			<g>
				<g>
					<path class="st10" d="M154.8,351.8c0,0-0.1,0-0.1,0c-1.5-0.5-2.3-2.2-1.7-3.7c0.1-0.2,0.3-0.3,0.4-0.2s0.3,0.3,0.2,0.4
						c-0.2,0.6-0.2,1.1,0.1,1.7c0.2,0.5,0.7,0.9,1.2,1.1c0.2,0.1,0.3,0.3,0.2,0.4C155.1,351.7,154.9,351.8,154.8,351.8z"/>
				</g>
			</g>
			<g>
				<g>
					<path class="st10" d="M151.6,351.4c-0.1,0-0.2-0.1-0.3-0.2c-0.4-0.7-0.5-1.5-0.3-2.2c0.2-0.8,0.7-1.4,1.3-1.8
						c0.2-0.1,0.4,0,0.5,0.1c0.1,0.2,0,0.4-0.1,0.5c-0.5,0.3-0.9,0.8-1,1.3c-0.2,0.6-0.1,1.2,0.2,1.7c0.1,0.2,0,0.4-0.1,0.5
						C151.7,351.4,151.7,351.4,151.6,351.4z"/>
				</g>
			</g>
			<g>
				<g>
					<path class="st10" d="M149.4,349.1C149.4,349.1,149.4,349.1,149.4,349.1c-0.3,0-0.4-0.2-0.3-0.4c0.1-0.8,0.6-1.4,1.2-1.9
						c0.6-0.4,1.4-0.6,2.2-0.5c0.2,0,0.3,0.2,0.3,0.4c0,0.2-0.2,0.3-0.4,0.3c-0.6-0.1-1.2,0-1.6,0.4c-0.5,0.3-0.8,0.8-0.9,1.4
						C149.7,348.9,149.6,349.1,149.4,349.1z"/>
				</g>
			</g>
			<g>
				<g>
					<path class="st10" d="M152.9,346.1c-0.1,0-0.2,0-0.3-0.1c-0.8-0.9-2.2-1.1-3.1-0.3c-0.2,0.1-0.4,0.1-0.5,0
						c-0.1-0.2-0.1-0.4,0-0.5c1.2-1,3.1-0.9,4.1,0.4c0.1,0.2,0.1,0.4,0,0.5C153,346.1,152.9,346.1,152.9,346.1z"/>
				</g>
			</g>
			<g>
				<path class="st10" d="M153.8,348.6c-1,0-1.8-0.8-1.8-1.8s0.8-1.8,1.8-1.8s1.8,0.8,1.8,1.8S154.7,348.6,153.8,348.6z
					 M153.8,345.8c-0.6,0-1.1,0.5-1.1,1.1c0,0.6,0.5,1.1,1.1,1.1s1.1-0.5,1.1-1.1C154.8,346.3,154.3,345.8,153.8,345.8z"/>
			</g>
		</g>
		<g>
			<path class="st10" d="M142.8,354.3h-2c-0.2,0-0.4-0.2-0.4-0.4v-1c0-0.2,0.2-0.4,0.4-0.4c0.2,0,0.4,0.2,0.4,0.4v0.6h1.3V353
				c0-0.2,0.2-0.4,0.4-0.4c0.2,0,0.4,0.2,0.4,0.4v1C143.1,354.2,143,354.3,142.8,354.3z"/>
		</g>
		<g>
			<path class="st10" d="M152.6,354.3h-8.7c-0.2,0-0.4-0.2-0.4-0.4v-1c0-0.2,0.2-0.4,0.4-0.4s0.4,0.2,0.4,0.4v0.6h8V353
				c0-0.2,0.2-0.4,0.4-0.4c0.2,0,0.4,0.2,0.4,0.4v1C153,354.2,152.8,354.3,152.6,354.3z"/>
		</g>
		<g>
			<path class="st10" d="M137.9,342.4h-1c-0.2,0-0.4-0.2-0.4-0.4s0.2-0.4,0.4-0.4h1c0.2,0,0.4,0.2,0.4,0.4S138.1,342.4,137.9,342.4z
				"/>
		</g>
		<g>
			<path class="st10" d="M137.9,353.3h-0.8c-0.2,0-0.4-0.2-0.4-0.4s0.2-0.4,0.4-0.4h0.8c0.2,0,0.4,0.2,0.4,0.4
				S138.1,353.3,137.9,353.3z"/>
		</g>
		<g>
			<path class="st10" d="M159.8,353.3H138c-0.2,0-0.4-0.2-0.4-0.4v-12.1c0-0.2,0.2-0.4,0.4-0.4h19.2c1.6,0,2.9,1.3,2.9,2.9v9.5
				C160.1,353.1,160,353.3,159.8,353.3z M138.4,352.6h21v-9.2c0-1.2-1-2.2-2.2-2.2h-18.8V352.6z"/>
		</g>
		<g>
			<path class="st10" d="M147,348h-6.7c-0.2,0-0.4-0.2-0.4-0.4v-1.5c0-0.2,0.2-0.4,0.4-0.4h6.7c0.2,0,0.4,0.2,0.4,0.4v1.5
				C147.3,347.8,147.2,348,147,348z M140.7,347.3h6v-0.8h-6V347.3L140.7,347.3z"/>
		</g>
		<g>
			<path class="st10" d="M147,344.9h-6.7c-0.2,0-0.4-0.2-0.4-0.4s0.2-0.4,0.4-0.4h6.7c0.2,0,0.4,0.2,0.4,0.4S147.2,344.9,147,344.9z
				"/>
		</g>
		<g>
			<path class="st10" d="M147,349.5h-6.7c-0.2,0-0.4-0.2-0.4-0.4c0-0.2,0.2-0.4,0.4-0.4h6.7c0.2,0,0.4,0.2,0.4,0.4
				C147.3,349.4,147.2,349.5,147,349.5z"/>
		</g>
	</g>
	<g>
		<g>
			<path class="st25" d="M230.2,374.7c-3,0-5.4-2.4-5.4-5.4v-33.1c0-3,2.4-5.4,5.4-5.4H280c3,0,5.4,2.4,5.4,5.4v33.1
				c0,3-2.4,5.4-5.4,5.4H230.2z"/>
			<path class="st26" d="M280,331c2.9,0,5.2,2.3,5.2,5.2v33.1c0,2.9-2.3,5.2-5.2,5.2h-49.8c-2.9,0-5.2-2.3-5.2-5.2v-33.1
				c0-2.9,2.3-5.2,5.2-5.2H280 M280,330.5h-49.8c-3.1,0-5.7,2.5-5.7,5.7v33.1c0,3.1,2.5,5.7,5.7,5.7H280c3.1,0,5.7-2.5,5.7-5.7
				v-33.1C285.6,333.1,283.1,330.5,280,330.5L280,330.5z"/>
		</g>
		<g>
			<text transform="matrix(0.98 0 0 1 248.0463 368.4161)" class="st7 st34 st35">NPU</text>
		</g>
		<g>
			<path class="st10" d="M258.6,342.6h-7c-0.8,0-1.5,0.7-1.5,1.5v7c0,0.8,0.7,1.5,1.5,1.5h7c0.8,0,1.5-0.7,1.5-1.5v-7
				C260,343.2,259.4,342.6,258.6,342.6z M259.3,351c0,0.4-0.3,0.7-0.7,0.7h-7c-0.4,0-0.7-0.3-0.7-0.7v-7c0-0.4,0.3-0.7,0.7-0.7h7
				c0.4,0,0.7,0.3,0.7,0.7V351z"/>
			<path class="st10" d="M263.3,345.2c0.2,0,0.4-0.2,0.4-0.4s-0.2-0.4-0.4-0.4h-1.5v-1.1h1.5c0.2,0,0.4-0.2,0.4-0.4
				c0-0.2-0.2-0.4-0.4-0.4h-1.5c0-1-0.8-1.8-1.8-1.8v-1.5c0-0.2-0.2-0.4-0.4-0.4c-0.2,0-0.4,0.2-0.4,0.4v1.5h-1.1v-1.5
				c0-0.2-0.2-0.4-0.4-0.4c-0.2,0-0.4,0.2-0.4,0.4v1.5h-1.1v-1.5c0-0.2-0.2-0.4-0.4-0.4s-0.4,0.2-0.4,0.4v1.5h-1.1v-1.5
				c0-0.2-0.2-0.4-0.4-0.4s-0.4,0.2-0.4,0.4v1.5h-1.1v-1.5c0-0.2-0.2-0.4-0.4-0.4s-0.4,0.2-0.4,0.4v1.5h-1.1v-1.5
				c0-0.2-0.2-0.4-0.4-0.4s-0.4,0.2-0.4,0.4v1.5c-1,0-1.8,0.8-1.8,1.8h-1.5c-0.2,0-0.4,0.2-0.4,0.4c0,0.2,0.2,0.4,0.4,0.4h1.5v1.1
				h-1.5c-0.2,0-0.4,0.2-0.4,0.4s0.2,0.4,0.4,0.4h1.5v1.1h-1.5c-0.2,0-0.4,0.2-0.4,0.4c0,0.2,0.2,0.4,0.4,0.4h1.5v1.1h-1.5
				c-0.2,0-0.4,0.2-0.4,0.4c0,0.2,0.2,0.4,0.4,0.4h1.5v1.1h-1.5c-0.2,0-0.4,0.2-0.4,0.4c0,0.2,0.2,0.4,0.4,0.4h1.5v1.1h-1.5
				c-0.2,0-0.4,0.2-0.4,0.4c0,0.2,0.2,0.4,0.4,0.4h1.5c0,1,0.8,1.8,1.8,1.8v1.5c0,0.2,0.2,0.4,0.4,0.4s0.4-0.2,0.4-0.4v-1.5h1.1v1.5
				c0,0.2,0.2,0.4,0.4,0.4s0.4-0.2,0.4-0.4v-1.5h1.1v1.5c0,0.2,0.2,0.4,0.4,0.4s0.4-0.2,0.4-0.4v-1.5h1.1v1.5c0,0.2,0.2,0.4,0.4,0.4
				s0.4-0.2,0.4-0.4v-1.5h1.1v1.5c0,0.2,0.2,0.4,0.4,0.4c0.2,0,0.4-0.2,0.4-0.4v-1.5h1.1v1.5c0,0.2,0.2,0.4,0.4,0.4
				c0.2,0,0.4-0.2,0.4-0.4v-1.5c1,0,1.8-0.8,1.8-1.8h1.5c0.2,0,0.4-0.2,0.4-0.4c0-0.2-0.2-0.4-0.4-0.4h-1.5v-1.1h1.5
				c0.2,0,0.4-0.2,0.4-0.4c0-0.2-0.2-0.4-0.4-0.4h-1.5v-1.1h1.5c0.2,0,0.4-0.2,0.4-0.4c0-0.2-0.2-0.4-0.4-0.4h-1.5V347h1.5
				c0.2,0,0.4-0.2,0.4-0.4c0-0.2-0.2-0.4-0.4-0.4h-1.5v-1.1H263.3z M261.1,352.5c0,0.6-0.5,1.1-1.1,1.1h-9.9c-0.6,0-1.1-0.5-1.1-1.1
				v-9.9c0-0.6,0.5-1.1,1.1-1.1h9.9c0.6,0,1.1,0.5,1.1,1.1V352.5z"/>
			<path class="st10" d="M257.8,344.4h-5.5c-0.2,0-0.4,0.2-0.4,0.4s0.2,0.4,0.4,0.4h5.5c0.2,0,0.4-0.2,0.4-0.4
				S258,344.4,257.8,344.4z"/>
			<path class="st10" d="M257.8,349.9h-5.5c-0.2,0-0.4,0.2-0.4,0.4c0,0.2,0.2,0.4,0.4,0.4h5.5c0.2,0,0.4-0.2,0.4-0.4
				C258.2,350.1,258,349.9,257.8,349.9z"/>
		</g>
	</g>
</g>
</svg>
