<?xml version="1.0" encoding="utf-8"?>
<!-- Generator: Adobe Illustrator 28.3.0, SVG Export Plug-In . SVG Version: 6.00 Build 0)  -->
<svg version="1.1" id="Layer_1" xmlns="http://www.w3.org/2000/svg" xmlns:xlink="http://www.w3.org/1999/xlink" x="0px" y="0px"
	 viewBox="0 0 400 420" style="enable-background:new 0 0 400 420;" xml:space="preserve">
<style type="text/css">
	.st0{fill:none;stroke:#C9CACA;stroke-width:0.3;stroke-miterlimit:10;}
	.st1{fill:#C9CACA;}
	.st2{fill:none;stroke:url(#SVGID_1_);stroke-width:3;stroke-linecap:round;stroke-miterlimit:10;}
	.st3{fill:url(#SVGID_00000075143646778988166300000007618463289669133746_);}
	.st4{fill:none;stroke:#EA5404;stroke-width:0.3;stroke-miterlimit:10;}
	.st5{fill:none;stroke:#9FA0A0;stroke-width:0.2835;stroke-miterlimit:10;}
	.st6{fill:#FFFFFF;stroke:#C9CACA;stroke-width:0.2835;stroke-miterlimit:10;}
	.st7{fill:#3E3A39;}
	.st8{fill:#F7F8F8;stroke:#C9CACA;stroke-width:0.2835;stroke-miterlimit:10;}
	.st9{fill:none;stroke:#595757;stroke-width:0.5;stroke-miterlimit:10;}
	.st10{fill:#595757;}
	.st11{fill:#FFFFFF;stroke:#595757;stroke-width:0.5;stroke-linecap:round;stroke-linejoin:round;stroke-miterlimit:10;}
	.st12{fill:#B3B3B4;}
	.st13{fill:#EA5404;stroke:#EA5404;stroke-width:0.283;stroke-miterlimit:10;}
	.st14{fill:#FFFFFF;stroke:#C9CACA;stroke-width:0.283;stroke-miterlimit:10;}
	.st15{fill:#F7F8F8;}
	.st16{fill:#EA5404;}
	.st17{font-family:'Gilroy-SemiBold';}
	.st18{font-size:8.5854px;}
	.st19{fill:none;stroke:#EFEFEF;stroke-miterlimit:10;}
	.st20{fill:#FFFFFF;stroke:#DCDDDD;stroke-width:0.3;stroke-miterlimit:10;}
	.st21{fill:#FFFFFF;}
	.st22{font-family:'Gilroy-Medium';}
	.st23{font-size:3.935px;}
	.st24{fill:#727171;}
	.st25{font-size:4.2927px;}
	.st26{font-family:'Gilroy-Bold';}
	.st27{font-size:5.7235px;}
	.st28{fill:#FFFFFF;stroke:#DCDDDD;stroke-miterlimit:10;}
	.st29{fill:none;stroke:#DCDDDD;stroke-width:0.3;stroke-miterlimit:10;}
	.st30{fill:none;stroke:#595757;stroke-width:0.7;stroke-linecap:round;stroke-linejoin:round;stroke-miterlimit:3.3333;}
	.st31{fill:none;}
	.st32{fill:none;stroke:#595757;stroke-width:0.6;stroke-linecap:round;stroke-linejoin:round;stroke-miterlimit:3.3333;}
	.st33{fill:#FFFFFF;stroke:#EA5404;stroke-miterlimit:10;}
	.st34{font-size:5.0082px;}
	.st35{fill:#DCDDDD;}
	.st36{fill:#FFFFFF;stroke:#EA5404;stroke-width:0.3;stroke-miterlimit:10;}
	.st37{font-size:3.5772px;}
	.st38{fill:#FEF7F4;stroke:#F1946C;stroke-width:0.3;stroke-miterlimit:10;}
	.st39{fill:#9FA0A0;}
	.st40{fill:none;stroke:#F1946C;stroke-width:0.3;stroke-miterlimit:10;}
</style>
<g>
	<path class="st15" d="M233.2,182.9H34.7c-3.9,0-7.1-3.2-7.1-7.1v-29c0-3.9,3.2-7.1,7.1-7.1h198.5c3.9,0,7.1,3.2,7.1,7.1v29
		C240.3,179.7,237.1,182.9,233.2,182.9z"/>
	<g>
		<text transform="matrix(1 0 0 1 76.2179 130.0253)"><tspan x="0" y="0" class="st16 st17 st18">A virtualized and scalable GPU</tspan><tspan x="122.7" y="0" class="st7 st17 st18"> infrastructure for hyperscale AI</tspan></text>
	</g>
	<path class="st19" d="M374.4,328.6H25.6c-7.8,0-14.2-6.3-14.2-14.2V122.1c0-7.8,6.3-14.2,14.2-14.2h348.9c7.8,0,14.2,6.3,14.2,14.2
		v192.3C388.6,322.3,382.3,328.6,374.4,328.6z"/>
	<g>
		<path class="st20" d="M27.6,280.3v25c0,3.9,3.2,7.1,7.1,7.1H57c3.9,0,7.1-3.2,7.1-7.1v-25c0-3.9-3.2-7.1-7.1-7.1H34.7
			C30.8,273.2,27.6,276.4,27.6,280.3z"/>
		<g>
			<g>
				<path class="st10" d="M39,296.7L39,296.7c-3.3,0-6,2.7-6,6l0,0c0,3.3,2.7,6,6,6l0,0c3.3,0,6-2.7,6-6l0,0
					C45.1,299.4,42.4,296.7,39,296.7z"/>
				<path class="st10" d="M39,283.2L39,283.2c-3.3,0-6,2.7-6,6l0,0c0,3.3,2.7,6,6,6l0,0c3.3,0,6-2.7,6-6l0,0
					C45.1,286,42.4,283.2,39,283.2z"/>
				<path class="st10" d="M52.7,296.7L52.7,296.7c-3.3,0-6,2.7-6,6l0,0c0,3.3,2.7,6,6,6h0c3.3,0,6-2.7,6-6l0,0
					C58.7,299.4,56,296.7,52.7,296.7z"/>
				<path class="st10" d="M52.7,283.2L52.7,283.2c-3.3,0-6,2.7-6,6l0,0c0,3.3,2.7,6,6,6h0c3.3,0,6-2.7,6-6l0,0
					C58.7,286,56,283.2,52.7,283.2z"/>
				<g>
					<text transform="matrix(0.98 0 0 1 35.1154 290.6445)" class="st21 st22 st23">GPU</text>
				</g>
				<g>
					<text transform="matrix(0.98 0 0 1 35.1139 304.1738)" class="st21 st22 st23">GPU</text>
				</g>
				<g>
					<text transform="matrix(0.98 0 0 1 48.7677 290.6904)" class="st21 st22 st23">GPU</text>
				</g>
				<g>
					<text transform="matrix(0.98 0 0 1 48.7677 304.1738)" class="st21 st22 st23">GPU</text>
				</g>
			</g>
			<g>
				<text transform="matrix(0.98 0 0 1 35.8342 280.5888)" class="st7 st22 st23">GPU Server</text>
			</g>
		</g>
	</g>
	<g>
		<path class="st20" d="M71.7,280.3v25c0,3.9,3.2,7.1,7.1,7.1h22.3c3.9,0,7.1-3.2,7.1-7.1v-25c0-3.9-3.2-7.1-7.1-7.1H78.7
			C74.8,273.2,71.7,276.4,71.7,280.3z"/>
		<g>
			<g>
				<path class="st10" d="M83.1,296.7L83.1,296.7c-3.3,0-6,2.7-6,6l0,0c0,3.3,2.7,6,6,6l0,0c3.3,0,6-2.7,6-6l0,0
					C89.1,299.4,86.4,296.7,83.1,296.7z"/>
				<path class="st10" d="M83.1,283.2L83.1,283.2c-3.3,0-6,2.7-6,6l0,0c0,3.3,2.7,6,6,6l0,0c3.3,0,6-2.7,6-6l0,0
					C89.1,286,86.4,283.2,83.1,283.2z"/>
				<path class="st10" d="M96.7,296.7L96.7,296.7c-3.3,0-6,2.7-6,6l0,0c0,3.3,2.7,6,6,6l0,0c3.3,0,6-2.7,6-6l0,0
					C102.8,299.4,100.1,296.7,96.7,296.7z"/>
				<path class="st10" d="M96.7,283.2L96.7,283.2c-3.3,0-6,2.7-6,6l0,0c0,3.3,2.7,6,6,6h0c3.3,0,6-2.7,6-6l0,0
					C102.8,286,100.1,283.2,96.7,283.2z"/>
				<g>
					<text transform="matrix(0.98 0 0 1 79.153 290.6445)" class="st21 st22 st23">GPU</text>
				</g>
				<g>
					<text transform="matrix(0.98 0 0 1 79.151 304.1738)" class="st21 st22 st23">GPU</text>
				</g>
				<g>
					<text transform="matrix(0.98 0 0 1 92.8053 290.6904)" class="st21 st22 st23">GPU</text>
				</g>
				<g>
					<text transform="matrix(0.98 0 0 1 92.8053 304.1738)" class="st21 st22 st23">GPU</text>
				</g>
			</g>
			<g>
				<text transform="matrix(0.98 0 0 1 79.8717 280.5888)" class="st7 st22 st23">GPU Server</text>
			</g>
		</g>
	</g>
	<g>
		<path class="st20" d="M115.7,280.3v25c0,3.9,3.2,7.1,7.1,7.1h22.3c3.9,0,7.1-3.2,7.1-7.1v-25c0-3.9-3.2-7.1-7.1-7.1h-22.3
			C118.9,273.2,115.7,276.4,115.7,280.3z"/>
		<g>
			<g>
				<path class="st10" d="M127.1,296.7L127.1,296.7c-3.3,0-6,2.7-6,6l0,0c0,3.3,2.7,6,6,6l0,0c3.3,0,6-2.7,6-6l0,0
					C133.2,299.4,130.4,296.7,127.1,296.7z"/>
				<path class="st10" d="M127.1,283.2L127.1,283.2c-3.3,0-6,2.7-6,6l0,0c0,3.3,2.7,6,6,6l0,0c3.3,0,6-2.7,6-6l0,0
					C133.2,286,130.4,283.2,127.1,283.2z"/>
				<path class="st10" d="M140.8,296.7L140.8,296.7c-3.3,0-6,2.7-6,6l0,0c0,3.3,2.7,6,6,6l0,0c3.3,0,6-2.7,6-6l0,0
					C146.8,299.4,144.1,296.7,140.8,296.7z"/>
				<path class="st10" d="M140.8,283.2L140.8,283.2c-3.3,0-6,2.7-6,6l0,0c0,3.3,2.7,6,6,6l0,0c3.3,0,6-2.7,6-6l0,0
					C146.8,286,144.1,283.2,140.8,283.2z"/>
				<g>
					<text transform="matrix(0.98 0 0 1 123.1911 290.6445)" class="st21 st22 st23">GPU</text>
				</g>
				<g>
					<text transform="matrix(0.98 0 0 1 123.1891 304.1738)" class="st21 st22 st23">GPU</text>
				</g>
				<g>
					<text transform="matrix(0.98 0 0 1 136.8434 290.6904)" class="st21 st22 st23">GPU</text>
				</g>
				<g>
					<text transform="matrix(0.98 0 0 1 136.8434 304.1738)" class="st21 st22 st23">GPU</text>
				</g>
			</g>
			<g>
				<text transform="matrix(0.98 0 0 1 123.9098 280.5888)" class="st7 st22 st23">GPU Server</text>
			</g>
		</g>
	</g>
	<g>
		<path class="st20" d="M159.7,280.3v25c0,3.9,3.2,7.1,7.1,7.1h22.3c3.9,0,7.1-3.2,7.1-7.1v-25c0-3.9-3.2-7.1-7.1-7.1h-22.3
			C162.9,273.2,159.7,276.4,159.7,280.3z"/>
		<g>
			<g>
				<path class="st10" d="M171.2,296.7L171.2,296.7c-3.3,0-6,2.7-6,6l0,0c0,3.3,2.7,6,6,6l0,0c3.3,0,6-2.7,6-6l0,0
					C177.2,299.4,174.5,296.7,171.2,296.7z"/>
				<path class="st10" d="M171.2,283.2L171.2,283.2c-3.3,0-6,2.7-6,6l0,0c0,3.3,2.7,6,6,6l0,0c3.3,0,6-2.7,6-6l0,0
					C177.2,286,174.5,283.2,171.2,283.2z"/>
				<path class="st10" d="M184.8,296.7L184.8,296.7c-3.3,0-6,2.7-6,6l0,0c0,3.3,2.7,6,6,6l0,0c3.3,0,6-2.7,6-6l0,0
					C190.8,299.4,188.1,296.7,184.8,296.7z"/>
				<path class="st10" d="M184.8,283.2L184.8,283.2c-3.3,0-6,2.7-6,6l0,0c0,3.3,2.7,6,6,6l0,0c3.3,0,6-2.7,6-6l0,0
					C190.8,286,188.1,283.2,184.8,283.2z"/>
				<g>
					<text transform="matrix(0.98 0 0 1 167.2282 290.6445)" class="st21 st22 st23">GPU</text>
				</g>
				<g>
					<text transform="matrix(0.98 0 0 1 167.2267 304.1738)" class="st21 st22 st23">GPU</text>
				</g>
				<g>
					<text transform="matrix(0.98 0 0 1 180.8805 290.6904)" class="st21 st22 st23">GPU</text>
				</g>
				<g>
					<text transform="matrix(0.98 0 0 1 180.8805 304.1738)" class="st21 st22 st23">GPU</text>
				</g>
			</g>
			<g>
				<text transform="matrix(0.98 0 0 1 167.9474 280.5888)" class="st7 st22 st23">GPU Server</text>
			</g>
		</g>
	</g>
	<g>
		<path class="st20" d="M203.8,280.3v25c0,3.9,3.2,7.1,7.1,7.1h22.3c3.9,0,7.1-3.2,7.1-7.1v-25c0-3.9-3.2-7.1-7.1-7.1h-22.3
			C206.9,273.2,203.8,276.4,203.8,280.3z"/>
		<g>
			<g>
				<path class="st10" d="M215.2,296.7L215.2,296.7c-3.3,0-6,2.7-6,6l0,0c0,3.3,2.7,6,6,6h0c3.3,0,6-2.7,6-6l0,0
					C221.2,299.4,218.5,296.7,215.2,296.7z"/>
				<path class="st10" d="M215.2,283.2L215.2,283.2c-3.3,0-6,2.7-6,6l0,0c0,3.3,2.7,6,6,6h0c3.3,0,6-2.7,6-6l0,0
					C221.2,286,218.5,283.2,215.2,283.2z"/>
				<path class="st10" d="M228.8,296.7L228.8,296.7c-3.3,0-6,2.7-6,6l0,0c0,3.3,2.7,6,6,6l0,0c3.3,0,6-2.7,6-6l0,0
					C234.9,299.4,232.2,296.7,228.8,296.7z"/>
				<path class="st10" d="M228.8,283.2L228.8,283.2c-3.3,0-6,2.7-6,6l0,0c0,3.3,2.7,6,6,6l0,0c3.3,0,6-2.7,6-6l0,0
					C234.9,286,232.2,283.2,228.8,283.2z"/>
				<g>
					<text transform="matrix(0.98 0 0 1 211.2663 290.6445)" class="st21 st22 st23">GPU</text>
				</g>
				<g>
					<text transform="matrix(0.98 0 0 1 211.2643 304.1738)" class="st21 st22 st23">GPU</text>
				</g>
				<g>
					<text transform="matrix(0.98 0 0 1 224.9186 290.6904)" class="st21 st22 st23">GPU</text>
				</g>
				<g>
					<text transform="matrix(0.98 0 0 1 224.9186 304.1738)" class="st21 st22 st23">GPU</text>
				</g>
			</g>
			<g>
				<text transform="matrix(0.98 0 0 1 211.9841 280.5888)" class="st7 st22 st23">GPU Server</text>
			</g>
		</g>
	</g>
	<g>
		<path class="st20" d="M247.8,280.3v25c0,3.9,3.2,7.1,7.1,7.1h22.3c3.9,0,7.1-3.2,7.1-7.1v-25c0-3.9-3.2-7.1-7.1-7.1h-22.3
			C251,273.2,247.8,276.4,247.8,280.3z"/>
		<g>
			<g>
				<path class="st10" d="M259.2,296.7L259.2,296.7c-3.3,0-6,2.7-6,6l0,0c0,3.3,2.7,6,6,6h0c3.3,0,6-2.7,6-6l0,0
					C265.3,299.4,262.6,296.7,259.2,296.7z"/>
				<path class="st10" d="M259.2,283.2L259.2,283.2c-3.3,0-6,2.7-6,6l0,0c0,3.3,2.7,6,6,6h0c3.3,0,6-2.7,6-6l0,0
					C265.3,286,262.6,283.2,259.2,283.2z"/>
				<path class="st10" d="M272.9,296.7L272.9,296.7c-3.3,0-6,2.7-6,6l0,0c0,3.3,2.7,6,6,6l0,0c3.3,0,6-2.7,6-6l0,0
					C278.9,299.4,276.2,296.7,272.9,296.7z"/>
				<path class="st10" d="M272.9,283.2L272.9,283.2c-3.3,0-6,2.7-6,6l0,0c0,3.3,2.7,6,6,6l0,0c3.3,0,6-2.7,6-6l0,0
					C278.9,286,276.2,283.2,272.9,283.2z"/>
				<g>
					<text transform="matrix(0.98 0 0 1 255.3034 290.6445)" class="st21 st22 st23">GPU</text>
				</g>
				<g>
					<text transform="matrix(0.98 0 0 1 255.3014 304.1738)" class="st21 st22 st23">GPU</text>
				</g>
				<g>
					<text transform="matrix(0.98 0 0 1 268.9557 290.6904)" class="st21 st22 st23">GPU</text>
				</g>
				<g>
					<text transform="matrix(0.98 0 0 1 268.9557 304.1738)" class="st21 st22 st23">GPU</text>
				</g>
			</g>
			<g>
				<text transform="matrix(0.98 0 0 1 256.0222 280.5888)" class="st7 st22 st23">GPU Server</text>
			</g>
		</g>
	</g>
	<g>
		<path class="st20" d="M291.8,280.3v25c0,3.9,3.2,7.1,7.1,7.1h22.3c3.9,0,7.1-3.2,7.1-7.1v-25c0-3.9-3.2-7.1-7.1-7.1h-22.3
			C295,273.2,291.8,276.4,291.8,280.3z"/>
		<g>
			<g>
				<path class="st10" d="M303.3,296.7L303.3,296.7c-3.3,0-6,2.7-6,6l0,0c0,1.2,2.7,6,6,6l0,0c3.3,0,6-2.7,6-6l0,0
					C309.3,299.4,306.6,296.7,303.3,296.7z"/>
				<path class="st10" d="M303.3,283.2L303.3,283.2c-3.3,0-6,2.7-6,6l0,0c0,3.3,2.7,6,6,6l0,0c3.3,0,6-2.7,6-6l0,0
					C309.3,286,306.6,283.2,303.3,283.2z"/>
				<path class="st10" d="M316.9,296.7L316.9,296.7c-3.3,0-6,2.7-6,6l0,0c0,3.3,2.7,6,6,6l0,0c3.3,0,6-2.7,6-6l0,0
					C323,299.4,320.3,296.7,316.9,296.7z"/>
				<path class="st10" d="M316.9,283.2L316.9,283.2c-3.3,0-6,2.7-6,6l0,0c0,3.3,2.7,6,6,6l0,0c3.3,0,6-2.7,6-6l0,0
					C323,286,320.3,283.2,316.9,283.2z"/>
				<g>
					<text transform="matrix(0.98 0 0 1 299.3415 290.6445)" class="st21 st22 st23">GPU</text>
				</g>
				<g>
					<text transform="matrix(0.98 0 0 1 299.3395 304.1738)" class="st21 st22 st23">GPU</text>
				</g>
				<g>
					<text transform="matrix(0.98 0 0 1 312.9938 290.6904)" class="st21 st22 st23">GPU</text>
				</g>
				<g>
					<text transform="matrix(0.98 0 0 1 312.9938 304.1738)" class="st21 st22 st23">GPU</text>
				</g>
			</g>
			<g>
				<text transform="matrix(0.98 0 0 1 300.0602 280.5888)" class="st7 st22 st23">GPU Server</text>
			</g>
		</g>
	</g>
	<g>
		<path class="st20" d="M335.9,280.3v25c0,3.9,3.2,7.1,7.1,7.1h22.3c3.9,0,7.1-3.2,7.1-7.1v-25c0-3.9-3.2-7.1-7.1-7.1H343
			C339.1,273.2,335.9,276.4,335.9,280.3z"/>
		<g>
			<g>
				<path class="st10" d="M347.3,296.7L347.3,296.7c-3.3,0-6,2.7-6,6l0,0c0,3.3,2.7,6,6,6l0,0c3.3,0,6-2.7,6-6l0,0
					C353.3,299.4,350.6,296.7,347.3,296.7z"/>
				<path class="st10" d="M347.3,283.2L347.3,283.2c-3.3,0-6,2.7-6,6l0,0c0,3.3,2.7,6,6,6l0,0c3.3,0,6-2.7,6-6l0,0
					C353.3,286,350.6,283.2,347.3,283.2z"/>
				<path class="st10" d="M361,296.7L361,296.7c-3.3,0-6,2.7-6,6l0,0c0,3.3,2.7,6,6,6l0,0c3.3,0,6-2.7,6-6l0,0
					C367,299.4,364.3,296.7,361,296.7z"/>
				<path class="st10" d="M361,283.2L361,283.2c-3.3,0-6,2.7-6,6l0,0c0,3.3,2.7,6,6,6l0,0c3.3,0,6-2.7,6-6l0,0
					C367,286,364.3,283.2,361,283.2z"/>
				<g>
					<text transform="matrix(0.98 0 0 1 343.3786 290.6445)" class="st21 st22 st23">GPU</text>
				</g>
				<g>
					<text transform="matrix(0.98 0 0 1 343.3776 304.1738)" class="st21 st22 st23">GPU</text>
				</g>
				<g>
					<text transform="matrix(0.98 0 0 1 357.0309 290.6904)" class="st21 st22 st23">GPU</text>
				</g>
				<g>
					<text transform="matrix(0.98 0 0 1 357.0309 304.1738)" class="st21 st22 st23">GPU</text>
				</g>
			</g>
			<g>
				<text transform="matrix(0.98 0 0 1 344.0974 280.5888)" class="st7 st22 st23">GPU Server</text>
			</g>
		</g>
	</g>
	<g>
		<text transform="matrix(0.98 0 0 1 96.9684 191.0351)" class="st24 st22 st25">Any type of user instance can be used</text>
	</g>
	<g>
		<g>
			<g>
				<path class="st11" d="M116.2,178.5v-2.6c0-0.4,0.3-0.8,0.7-1l1.4-0.7l1.2,1.3l0.6-0.8h0.5l0.6,0.8l1.2-1.3l1.4,0.7
					c0.4,0.2,0.7,0.6,0.7,1v2.6"/>
				<polygon class="st11" points="121.1,173.9 120.3,174.4 119.4,173.9 119.4,172.5 121.1,172.5 				"/>
				<path class="st11" d="M122.2,170.3l0-0.6c0.1-1.1-0.8-2-1.9-2h-0.1c-1.1,0-2,0.9-1.9,2l0,0.6c-0.2,0-0.4,0.2-0.4,0.5l0,0.3
					c0,0.2,0.2,0.4,0.5,0.4c0.2,0.9,0.9,1.6,1.9,1.6l0,0c0.9,0,1.7-0.7,1.9-1.6c0.2,0,0.4-0.2,0.5-0.4l0-0.3
					C122.6,170.5,122.4,170.3,122.2,170.3z"/>
				<path class="st11" d="M121.6,167.6C121.6,167.6,121.6,167.6,121.6,167.6c-0.1,0-0.1,0-0.1-0.1c0,0,0,0,0,0c0,0-0.1,0-0.2-0.1
					c0,0,0,0,0,0c0,0-0.1,0-0.1,0c0,0,0,0,0,0c0,0-0.1,0-0.2,0c0,0,0,0,0,0c-0.1,0-0.1,0-0.2,0c0,0,0,0,0,0c0,0-0.1,0-0.1,0
					c0,0,0,0-0.1,0c-0.1,0-0.1,0-0.2,0h-2.1c0,0-0.1,0.4,0.1,0.9c-0.3,0.4-0.3,0.9-0.3,1.5c0,0.3,0,0.5,0.1,0.8l0.3-0.2
					c0,0,0.6-0.1,0.7-0.7c0.1-0.6,0.1-0.6,0.1-0.6l0,0h0.4h1.5h0.4c0,0,0,0,0.1,0.6c0.2,0.6,0.7,0.7,0.7,0.7l0.3,0.2
					c0.1-0.2,0.1-0.5,0.1-0.8C122.6,168.8,122.4,168,121.6,167.6z"/>
				<polygon class="st11" points="120.1,174.4 120.5,174.4 120.9,175.2 120.3,176.1 119.6,175.2 				"/>
				<polygon class="st11" points="120.3,174.4 120.3,174.7 120,174.7 119.4,175.5 118.2,174.2 119,173.5 119.4,173.5 119.4,173.9 
					120,174.2 				"/>
				<polygon class="st11" points="122.3,174.2 121.1,175.5 120.5,174.7 120.3,174.7 120.3,174.4 120.5,174.2 121.1,173.9 
					121.1,173.5 121.5,173.5 				"/>
				<line class="st11" x1="117.7" y1="178.5" x2="117.7" y2="177.8"/>
				<line class="st11" x1="122.9" y1="178.5" x2="122.9" y2="177.8"/>
				<path class="st12" d="M122.3,169.8c0,0.2,0,0.4-0.1,0.5l0,0c0,0-0.6-0.1-0.7-0.7c-0.2-0.6-0.1-0.6-0.1-0.6h-2.2c0,0,0,0,0,0.1
					c0,0.1,0,0.2-0.1,0.6c-0.2,0.6-0.7,0.7-0.7,0.7l-0.3,0.2c0,0,0-0.1,0-0.1c-0.1-0.2-0.1-0.4-0.1-0.7c0-0.6,0.1-1.1,0.3-1.5
					c-0.2-0.3-0.1-0.6-0.1-0.8h1.8c0.1,0,0.1,0,0.2,0c0,0,0,0,0.1,0c0.1,0,0.1,0,0.1,0c0,0,0,0,0,0c0.1,0,0.1,0,0.2,0c0,0,0,0,0,0
					c0.1,0,0.1,0,0.2,0c0,0,0,0,0,0c0,0,0.1,0,0.1,0c0,0,0,0,0,0c0.1,0,0.1,0,0.1,0.1c0,0,0,0,0,0c0,0,0.1,0,0.1,0.1c0,0,0,0,0,0
					C122,168.1,122.3,168.9,122.3,169.8z"/>
			</g>
			<g>
				<path class="st11" d="M129.9,178.5v-2.6c0-0.4,0.3-0.8,0.7-1l1.4-0.7l1.2,1.3l0.6-0.8h0.5l0.6,0.8l1.2-1.3l1.4,0.7
					c0.4,0.2,0.7,0.6,0.7,1v2.6"/>
				<polygon class="st11" points="134.8,173.9 133.9,174.4 133.1,173.9 133.1,172.5 134.8,172.5 				"/>
				<path class="st11" d="M135.9,170.3l0-0.6c0.1-1.1-0.8-2-1.9-2h-0.1c-1.1,0-2,0.9-1.9,2l0,0.6c-0.2,0-0.4,0.2-0.4,0.5l0,0.3
					c0,0.2,0.2,0.4,0.5,0.4c0.2,0.9,0.9,1.6,1.9,1.6l0,0c0.9,0,1.7-0.7,1.9-1.6c0.2,0,0.4-0.2,0.5-0.4l0-0.3
					C136.3,170.5,136.1,170.3,135.9,170.3z"/>
				<path class="st11" d="M135.3,167.6C135.3,167.6,135.3,167.6,135.3,167.6c-0.1,0-0.1,0-0.1-0.1c0,0,0,0,0,0c0,0-0.1,0-0.2-0.1
					c0,0,0,0,0,0c0,0-0.1,0-0.1,0c0,0,0,0,0,0c0,0-0.1,0-0.2,0c0,0,0,0,0,0c-0.1,0-0.1,0-0.2,0c0,0,0,0,0,0c0,0-0.1,0-0.1,0
					c0,0,0,0-0.1,0c-0.1,0-0.1,0-0.2,0h-2.1c0,0-0.1,0.4,0.1,0.9c-0.3,0.4-0.3,0.9-0.3,1.5c0,0.3,0,0.5,0.1,0.8l0.3-0.2
					c0,0,0.6-0.1,0.7-0.7c0.1-0.6,0.1-0.6,0.1-0.6l0,0h0.4h1.5h0.4c0,0,0,0,0.1,0.6c0.2,0.6,0.7,0.7,0.7,0.7l0.3,0.2
					c0.1-0.2,0.1-0.5,0.1-0.8C136.3,168.8,136.1,168,135.3,167.6z"/>
				<polygon class="st11" points="133.7,174.4 134.1,174.4 134.6,175.2 133.9,176.1 133.3,175.2 				"/>
				<polygon class="st11" points="133.9,174.4 133.9,174.7 133.7,174.7 133.1,175.5 131.9,174.2 132.7,173.5 133.1,173.5 
					133.1,173.9 133.7,174.2 				"/>
				<polygon class="st11" points="136,174.2 134.8,175.5 134.2,174.7 133.9,174.7 133.9,174.4 134.2,174.2 134.8,173.9 134.8,173.5 
					135.2,173.5 				"/>
				<line class="st11" x1="131.3" y1="178.5" x2="131.3" y2="177.8"/>
				<line class="st11" x1="136.5" y1="178.5" x2="136.5" y2="177.8"/>
				<path class="st12" d="M136,169.8c0,0.2,0,0.4-0.1,0.5l0,0c0,0-0.6-0.1-0.7-0.7c-0.2-0.6-0.1-0.6-0.1-0.6h-2.2c0,0,0,0,0,0.1
					c0,0.1,0,0.2-0.1,0.6c-0.2,0.6-0.7,0.7-0.7,0.7l-0.3,0.2c0,0,0-0.1,0-0.1c-0.1-0.2-0.1-0.4-0.1-0.7c0-0.6,0.1-1.1,0.3-1.5
					c-0.2-0.3-0.1-0.6-0.1-0.8h1.8c0.1,0,0.1,0,0.2,0c0,0,0,0,0.1,0c0.1,0,0.1,0,0.1,0c0,0,0,0,0,0c0.1,0,0.1,0,0.2,0c0,0,0,0,0,0
					c0.1,0,0.1,0,0.2,0c0,0,0,0,0,0c0,0,0.1,0,0.1,0c0,0,0,0,0,0c0.1,0,0.1,0,0.1,0.1c0,0,0,0,0,0c0,0,0.1,0,0.1,0.1c0,0,0,0,0,0
					C135.7,168.1,136,168.9,136,169.8z"/>
			</g>
			<g>
				<path class="st11" d="M143.5,178.5v-2.6c0-0.4,0.3-0.8,0.7-1l1.4-0.7l1.2,1.3l0.6-0.8h0.5l0.6,0.8l1.2-1.3l1.4,0.7
					c0.4,0.2,0.7,0.6,0.7,1v2.6"/>
				<polygon class="st11" points="148.5,173.9 147.6,174.4 146.8,173.9 146.8,172.5 148.5,172.5 				"/>
				<path class="st11" d="M149.6,170.3l0-0.6c0.1-1.1-0.8-2-1.9-2h-0.1c-1.1,0-2,0.9-1.9,2l0,0.6c-0.2,0-0.4,0.2-0.4,0.5l0,0.3
					c0,0.2,0.2,0.4,0.5,0.4c0.2,0.9,0.9,1.6,1.9,1.6l0,0c0.9,0,1.7-0.7,1.9-1.6c0.2,0,0.4-0.2,0.5-0.4l0-0.3
					C150,170.5,149.8,170.3,149.6,170.3z"/>
				<path class="st11" d="M149,167.6C149,167.6,148.9,167.6,149,167.6c-0.1,0-0.1,0-0.1-0.1c0,0,0,0,0,0c0,0-0.1,0-0.2-0.1
					c0,0,0,0,0,0c0,0-0.1,0-0.1,0c0,0,0,0,0,0c0,0-0.1,0-0.2,0c0,0,0,0,0,0c-0.1,0-0.1,0-0.2,0c0,0,0,0,0,0c0,0-0.1,0-0.1,0
					c0,0,0,0-0.1,0c-0.1,0-0.1,0-0.2,0h-2.1c0,0-0.1,0.4,0.1,0.9c-0.3,0.4-0.3,0.9-0.3,1.5c0,0.3,0,0.5,0.1,0.8l0.3-0.2
					c0,0,0.6-0.1,0.7-0.7c0.1-0.6,0.1-0.6,0.1-0.6l0,0h0.4h1.5h0.4c0,0,0,0,0.1,0.6c0.2,0.6,0.7,0.7,0.7,0.7l0.3,0.2
					c0.1-0.2,0.1-0.5,0.1-0.8C150,168.8,149.7,168,149,167.6z"/>
				<polygon class="st11" points="147.4,174.4 147.8,174.4 148.3,175.2 147.6,176.1 146.9,175.2 				"/>
				<polygon class="st11" points="147.6,174.4 147.6,174.7 147.4,174.7 146.8,175.5 145.6,174.2 146.4,173.5 146.8,173.5 
					146.8,173.9 147.4,174.2 				"/>
				<polygon class="st11" points="149.7,174.2 148.5,175.5 147.9,174.7 147.6,174.7 147.6,174.4 147.9,174.2 148.5,173.9 
					148.5,173.5 148.9,173.5 				"/>
				<line class="st11" x1="145" y1="178.5" x2="145" y2="177.8"/>
				<line class="st11" x1="150.2" y1="178.5" x2="150.2" y2="177.8"/>
				<path class="st12" d="M149.7,169.8c0,0.2,0,0.4-0.1,0.5l0,0c0,0-0.6-0.1-0.7-0.7c-0.2-0.6-0.1-0.6-0.1-0.6h-2.2c0,0,0,0,0,0.1
					c0,0.1,0,0.2-0.1,0.6c-0.2,0.6-0.7,0.7-0.7,0.7l-0.3,0.2c0,0,0-0.1,0-0.1c-0.1-0.2-0.1-0.4-0.1-0.7c0-0.6,0.1-1.1,0.3-1.5
					c-0.2-0.3-0.1-0.6-0.1-0.8h1.8c0.1,0,0.1,0,0.2,0c0,0,0,0,0.1,0c0.1,0,0.1,0,0.1,0c0,0,0,0,0,0c0.1,0,0.1,0,0.2,0c0,0,0,0,0,0
					c0.1,0,0.1,0,0.2,0c0,0,0,0,0,0c0,0,0.1,0,0.1,0c0,0,0,0,0,0c0.1,0,0.1,0,0.1,0.1c0,0,0,0,0,0c0,0,0.1,0,0.1,0.1c0,0,0,0,0,0
					C149.4,168.1,149.7,168.9,149.7,169.8z"/>
			</g>
		</g>
		<g>
			<text transform="matrix(0.98 0 0 1 117.7424 149.7285)" class="st16 st26 st27">AI engineers</text>
		</g>
		<g>
			<text transform="matrix(0.98 0 0 1 69.923 156.6972)"><tspan x="0" y="0" class="st7 st22 st25">Served with virtual devices scaling from one to thousands of GPUs</tspan><tspan x="27" y="5" class="st7 st22 st25">with PyTorch/TensorFlow compatibility</tspan></text>
		</g>
	</g>
	<path class="st15" d="M365.3,182.9H254.9c-3.9,0-7.1-3.2-7.1-7.1v-29c0-3.9,3.2-7.1,7.1-7.1h110.4c3.9,0,7.1,3.2,7.1,7.1v29
		C372.4,179.7,369.2,182.9,365.3,182.9z"/>
	<g>
		<g>
			<g>
				<path class="st11" d="M299.2,178.5v-2.6c0-0.4,0.3-0.8,0.7-1l1.4-0.7l1.2,1.3l0.6-0.8h0.5l0.6,0.8l1.2-1.3l1.4,0.7
					c0.4,0.2,0.7,0.6,0.7,1v2.6"/>
				<polygon class="st11" points="304.1,173.9 303.3,174.4 302.4,173.9 302.4,172.5 304.1,172.5 				"/>
				<path class="st11" d="M305.2,170.3l0-0.6c0.1-1.1-0.8-2-1.9-2h-0.1c-1.1,0-2,0.9-1.9,2l0,0.6c-0.2,0-0.4,0.2-0.4,0.5l0,0.3
					c0,0.2,0.2,0.4,0.5,0.4c0.2,0.9,0.9,1.6,1.9,1.6l0,0c0.9,0,1.7-0.7,1.9-1.6c0.2,0,0.4-0.2,0.5-0.4l0-0.3
					C305.6,170.5,305.4,170.3,305.2,170.3z"/>
				<path class="st11" d="M304.6,167.6C304.6,167.6,304.6,167.6,304.6,167.6c-0.1,0-0.1,0-0.1-0.1c0,0,0,0,0,0c0,0-0.1,0-0.2-0.1
					c0,0,0,0,0,0c0,0-0.1,0-0.1,0c0,0,0,0,0,0c0,0-0.1,0-0.2,0c0,0,0,0,0,0c-0.1,0-0.1,0-0.2,0c0,0,0,0,0,0c0,0-0.1,0-0.1,0
					c0,0,0,0-0.1,0c-0.1,0-0.1,0-0.2,0h-2.1c0,0-0.1,0.4,0.1,0.9c-0.3,0.4-0.3,0.9-0.3,1.5c0,0.3,0,0.5,0.1,0.8l0.3-0.2
					c0,0,0.6-0.1,0.7-0.7c0.1-0.6,0.1-0.6,0.1-0.6l0,0h0.4h1.5h0.4c0,0,0,0,0.1,0.6c0.2,0.6,0.7,0.7,0.7,0.7l0.3,0.2
					c0.1-0.2,0.1-0.5,0.1-0.8C305.6,168.8,305.4,168,304.6,167.6z"/>
				<polygon class="st11" points="303,174.4 303.5,174.4 303.9,175.2 303.3,176.1 302.6,175.2 				"/>
				<polygon class="st11" points="303.3,174.4 303.3,174.7 303,174.7 302.4,175.5 301.2,174.2 302,173.5 302.4,173.5 302.4,173.9 
					303,174.2 				"/>
				<polygon class="st11" points="305.3,174.2 304.1,175.5 303.5,174.7 303.3,174.7 303.3,174.4 303.5,174.2 304.1,173.9 
					304.1,173.5 304.5,173.5 				"/>
				<line class="st11" x1="300.7" y1="178.5" x2="300.7" y2="177.8"/>
				<line class="st11" x1="305.8" y1="178.5" x2="305.8" y2="177.8"/>
				<path class="st12" d="M305.3,169.8c0,0.2,0,0.4-0.1,0.5l0,0c0,0-0.6-0.1-0.7-0.7c-0.2-0.6-0.1-0.6-0.1-0.6h-2.2c0,0,0,0,0,0.1
					c0,0.1,0,0.2-0.1,0.6c-0.2,0.6-0.7,0.7-0.7,0.7l-0.3,0.2c0,0,0-0.1,0-0.1c-0.1-0.2-0.1-0.4-0.1-0.7c0-0.6,0.1-1.1,0.3-1.5
					c-0.2-0.3-0.1-0.6-0.1-0.8h1.8c0.1,0,0.1,0,0.2,0c0,0,0,0,0.1,0c0.1,0,0.1,0,0.1,0c0,0,0,0,0,0c0.1,0,0.1,0,0.2,0c0,0,0,0,0,0
					c0.1,0,0.1,0,0.2,0c0,0,0,0,0,0c0,0,0.1,0,0.1,0c0,0,0,0,0,0c0.1,0,0.1,0,0.1,0.1c0,0,0,0,0,0c0,0,0.1,0,0.1,0.1c0,0,0,0,0,0
					C305,168.1,305.3,168.9,305.3,169.8z"/>
			</g>
			<g>
				<path class="st11" d="M312.8,178.5v-2.6c0-0.4,0.3-0.8,0.7-1l1.4-0.7l1.2,1.3l0.6-0.8h0.5l0.6,0.8l1.2-1.3l1.4,0.7
					c0.4,0.2,0.7,0.6,0.7,1v2.6"/>
				<polygon class="st11" points="317.8,173.9 316.9,174.4 316.1,173.9 316.1,172.5 317.8,172.5 				"/>
				<path class="st11" d="M318.9,170.3l0-0.6c0.1-1.1-0.8-2-1.9-2h-0.1c-1.1,0-2,0.9-1.9,2l0,0.6c-0.2,0-0.4,0.2-0.4,0.5l0,0.3
					c0,0.2,0.2,0.4,0.5,0.4c0.2,0.9,0.9,1.6,1.9,1.6l0,0c0.9,0,1.7-0.7,1.9-1.6c0.2,0,0.4-0.2,0.5-0.4l0-0.3
					C319.3,170.5,319.1,170.3,318.9,170.3z"/>
				<path class="st11" d="M318.3,167.6C318.3,167.6,318.3,167.6,318.3,167.6c-0.1,0-0.1,0-0.1-0.1c0,0,0,0,0,0c0,0-0.1,0-0.2-0.1
					c0,0,0,0,0,0c0,0-0.1,0-0.1,0c0,0,0,0,0,0c0,0-0.1,0-0.2,0c0,0,0,0,0,0c-0.1,0-0.1,0-0.2,0c0,0,0,0,0,0c0,0-0.1,0-0.1,0
					c0,0,0,0-0.1,0c-0.1,0-0.1,0-0.2,0h-2.1c0,0-0.1,0.4,0.1,0.9c-0.3,0.4-0.3,0.9-0.3,1.5c0,0.3,0,0.5,0.1,0.8l0.3-0.2
					c0,0,0.6-0.1,0.7-0.7c0.1-0.6,0.1-0.6,0.1-0.6l0,0h0.4h1.5h0.4c0,0,0,0,0.1,0.6c0.2,0.6,0.7,0.7,0.7,0.7l0.3,0.2
					c0.1-0.2,0.1-0.5,0.1-0.8C319.3,168.8,319,168,318.3,167.6z"/>
				<polygon class="st11" points="316.7,174.4 317.1,174.4 317.6,175.2 316.9,176.1 316.3,175.2 				"/>
				<polygon class="st11" points="316.9,174.4 316.9,174.7 316.7,174.7 316.1,175.5 314.9,174.2 315.7,173.5 316.1,173.5 
					316.1,173.9 316.7,174.2 				"/>
				<polygon class="st11" points="319,174.2 317.8,175.5 317.2,174.7 316.9,174.7 316.9,174.4 317.2,174.2 317.8,173.9 317.8,173.5 
					318.2,173.5 				"/>
				<line class="st11" x1="314.3" y1="178.5" x2="314.3" y2="177.8"/>
				<line class="st11" x1="319.5" y1="178.5" x2="319.5" y2="177.8"/>
				<path class="st12" d="M319,169.8c0,0.2,0,0.4-0.1,0.5l0,0c0,0-0.6-0.1-0.7-0.7c-0.2-0.6-0.1-0.6-0.1-0.6h-2.2c0,0,0,0,0,0.1
					c0,0.1,0,0.2-0.1,0.6c-0.2,0.6-0.7,0.7-0.7,0.7l-0.3,0.2c0,0,0-0.1,0-0.1c-0.1-0.2-0.1-0.4-0.1-0.7c0-0.6,0.1-1.1,0.3-1.5
					c-0.2-0.3-0.1-0.6-0.1-0.8h1.8c0.1,0,0.1,0,0.2,0c0,0,0,0,0.1,0c0.1,0,0.1,0,0.1,0c0,0,0,0,0,0c0.1,0,0.1,0,0.2,0c0,0,0,0,0,0
					c0.1,0,0.1,0,0.2,0c0,0,0,0,0,0c0,0,0.1,0,0.1,0c0,0,0,0,0,0c0.1,0,0.1,0,0.1,0.1c0,0,0,0,0,0c0,0,0.1,0,0.1,0.1c0,0,0,0,0,0
					C318.7,168.1,319,168.9,319,169.8z"/>
			</g>
		</g>
		<g>
			<text transform="matrix(0.98 0 0 1 293.8337 149.7285)" class="st16 st26 st27">Infra admins</text>
		</g>
		<g>
			<text transform="matrix(0.98 0 0 1 270.8151 156.6972)"><tspan x="0" y="0" class="st7 st22 st25">Se</tspan><tspan x="5" y="0" class="st7 st22 st25">r</tspan><tspan x="6.6" y="0" class="st7 st22 st25">ved with comprehensive functions for</tspan><tspan x="-5.4" y="5" class="st7 st22 st25">monitoring and managing GPUs and user jobs</tspan></text>
		</g>
	</g>
	<line class="st28" x1="343" y1="216.8" x2="343" y2="241.3"/>
	<line class="st28" x1="354.1" y1="243.9" x2="354.1" y2="273.2"/>
	<line class="st28" x1="310.1" y1="243.9" x2="310.1" y2="273.2"/>
	<line class="st28" x1="266.1" y1="243.9" x2="266.1" y2="273.2"/>
	<line class="st28" x1="222" y1="243.9" x2="222" y2="273.2"/>
	<line class="st28" x1="178" y1="243.9" x2="178" y2="273.2"/>
	<line class="st28" x1="133.9" y1="243.9" x2="133.9" y2="273.2"/>
	<line class="st28" x1="89.9" y1="243.9" x2="89.9" y2="273.2"/>
	<line class="st28" x1="45.9" y1="243.9" x2="45.9" y2="273.2"/>
	<line class="st28" x1="277.5" y1="216.8" x2="277.5" y2="241.3"/>
	<path class="st20" d="M86.5,231.1H34.7c-3.9,0-7.1-3.2-7.1-7.1v-20.3c0-3.9,3.2-7.1,7.1-7.1h51.8c3.9,0,7.1,3.2,7.1,7.1V224
		C93.6,227.9,90.4,231.1,86.5,231.1z"/>
	<g>
		<text transform="matrix(0.98 0 0 1 33.2106 215.166)" class="st7 st22 st25">Bare-metal</text>
	</g>
	<line class="st20" x1="75.4" y1="212.9" x2="75.4" y2="214.9"/>
	<path class="st20" d="M159.9,231.1H108c-3.9,0-7.1-3.2-7.1-7.1v-20.3c0-3.9,3.2-7.1,7.1-7.1h51.8c3.9,0,7.1,3.2,7.1,7.1V224
		C166.9,227.9,163.8,231.1,159.9,231.1z"/>
	<line class="st20" x1="148.7" y1="212.9" x2="148.7" y2="214.9"/>
	<g>
		<text transform="matrix(0.98 0 0 1 113.6584 207.8574)"><tspan x="0" y="0" class="st7 st22 st25">VM/</tspan><tspan x="-6.2" y="4.3" class="st7 st22 st25">Hypervisor</tspan></text>
	</g>
	
		<image style="overflow:visible;" width="1956" height="945" xlink:href="5A149B5FB776DAEA.png"  transform="matrix(8.432302e-03 0 0 8.432302e-03 109.5209 216.9647)">
	</image>
	<path class="st29" d="M86.7,231.1H34.5c-3.8,0-6.8-3.1-6.8-6.8v-20.8c0-3.8,3.1-6.8,6.8-6.8h52.2c3.8,0,6.8,3.1,6.8,6.8v20.8
		C93.5,228,90.4,231.1,86.7,231.1z"/>
	<g>
		<g>
			<path class="st20" d="M366.5,231.1H253.6c-3.2,0-5.8-2.6-5.8-5.8v0c0-3.2,2.6-5.8,5.8-5.8h112.9c3.2,0,5.8,2.6,5.8,5.8l0,0
				C372.4,228.5,369.8,231.1,366.5,231.1z"/>
			<g>
				<text transform="matrix(0.98 0 0 1 300.3434 226.5605)" class="st7 st22 st25">API Server</text>
			</g>
		</g>
		<g>
			<path class="st20" d="M301.2,217.2h-47.5c-3.1,0-5.7-2.5-5.7-5.7v-9.2c0-3.1,2.5-5.7,5.7-5.7h47.5c3.1,0,5.7,2.5,5.7,5.7v9.2
				C306.9,214.7,304.3,217.2,301.2,217.2z"/>
			<g>
				<text transform="matrix(0.98 0 0 1 261.5876 214.0781)" class="st7 st22 st25">REST/gRPC APIs</text>
			</g>
			<g>
				<g>
					<g>
						<path class="st30" d="M276.1,203.3l-1.1,1.1l1.1,1.1"/>
						<path class="st30" d="M278.8,203.3l1.1,1.1l-1.1,1.1"/>
						<path class="st30" d="M277.8,203.1l-0.6,2.5"/>
					</g>
				</g>
				<path class="st31" d="M271.4,197.7h12.2v12.2h-12.2V197.7z"/>
				<path class="st30" d="M272.9,201.3c0-0.6,0.5-1,1-1h7.1c0.6,0,1,0.5,1,1v5.1c0,0.6-0.5,1-1,1h-7.1c-0.6,0-1-0.5-1-1V201.3z"/>
				<path class="st30" d="M274.4,201.6L274.4,201.6"/>
				<path class="st30" d="M275.2,201.6L275.2,201.6"/>
				<path class="st30" d="M276,201.6L276,201.6"/>
			</g>
		</g>
		<g>
			<path class="st20" d="M366.7,217.2h-47.5c-3.1,0-5.7-2.5-5.7-5.7v-9.2c0-3.1,2.5-5.7,5.7-5.7h47.5c3.1,0,5.7,2.5,5.7,5.7v9.2
				C372.4,214.7,369.8,217.2,366.7,217.2z"/>
			<g>
				<text transform="matrix(0.98 0 0 1 330.2546 214.0781)" class="st7 st22 st25">Web console</text>
			</g>
			<g>
				<path class="st31" d="M336.9,197.7H349v12.2h-12.2V197.7z"/>
				<path class="st30" d="M338.4,200.6c0-0.3,0.2-0.5,0.5-0.5h8.1c0.3,0,0.5,0.2,0.5,0.5v5.1c0,0.3-0.2,0.5-0.5,0.5h-8.1
					c-0.3,0-0.5-0.2-0.5-0.5V200.6z"/>
				<path class="st30" d="M340.4,207.8h5.1"/>
				<path class="st30" d="M341.4,206.2v1.7"/>
				<path class="st30" d="M344.5,206.2v1.7"/>
				<g>
					<g>
						<path class="st32" d="M340.9,203.1c0,1.2,0.9,2.1,2.1,2.1c1.2,0,2.1-0.9,2.1-2.1c0-1.2-0.9-2.1-2.1-2.1
							C341.8,201,340.9,202,340.9,203.1"/>
						<path class="st32" d="M341,202.4h3.9"/>
						<path class="st32" d="M341,203.8h3.9"/>
						<path class="st32" d="M342.8,201c-0.8,1.3-0.8,2.9,0,4.2"/>
						<path class="st32" d="M343.1,201c0.8,1.3,0.8,2.9,0,4.2"/>
					</g>
				</g>
			</g>
		</g>
	</g>
	<path class="st20" d="M233.2,231.1h-51.8c-3.9,0-7.1-3.2-7.1-7.1v-20.3c0-3.9,3.2-7.1,7.1-7.1h51.8c3.9,0,7.1,3.2,7.1,7.1V224
		C240.3,227.9,237.1,231.1,233.2,231.1z"/>
	<line class="st33" x1="222.1" y1="212.9" x2="222.1" y2="236.3"/>
	<line class="st33" x1="148.7" y1="212.9" x2="148.7" y2="236.3"/>
	<line class="st33" x1="75.4" y1="212.9" x2="75.4" y2="236.3"/>
	<g>
		<text transform="matrix(0.98 0 0 1 180.0031 207.8574)"><tspan x="0" y="0" class="st7 st22 st25">Container/</tspan><tspan x="-1.7" y="4.3" class="st7 st22 st25">Orchestrator</tspan></text>
	</g>
	<g>
		
			<image style="overflow:visible;" width="1316" height="1126" xlink:href="5A149B5FB776DAEF.png"  transform="matrix(7.875681e-03 0 0 7.875681e-03 195.1655 216.0845)">
		</image>
		
			<image style="overflow:visible;" width="3840" height="2160" xlink:href="5A149B5FB776DAE9.png"  transform="matrix(4.603925e-03 0 0 4.603925e-03 176.0935 215.8004)">
		</image>
	</g>
	<g>
		<g>
			<path class="st16" d="M372.4,242.4L372.4,242.4c0,3.4-2.7,6.1-6.1,6.1H34.5c-3.4,0-6.1-2.7-6.1-6.1v0c0-3.4,2.7-6.1,6.1-6.1
				h331.8C369.7,236.3,372.4,239,372.4,242.4z"/>
		</g>
		<g>
			<text transform="matrix(0.98 0 0 1 184.5466 243.8691)" class="st21 st22 st34">MoAI Platform</text>
		</g>
	</g>
	<g>
		<g>
			<path class="st21" d="M34.5,265.6c-3.2,0-5.8-2.6-5.8-5.8s2.6-5.8,5.8-5.8h331.8c3.2,0,5.8,2.6,5.8,5.8s-2.6,5.8-5.8,5.8H34.5z"
				/>
			<path class="st35" d="M366.3,254.2c3.1,0,5.6,2.5,5.6,5.6s-2.5,5.6-5.6,5.6H34.5c-3.1,0-5.6-2.5-5.6-5.6s2.5-5.6,5.6-5.6H366.3
				 M366.3,253.7H34.5c-3.4,0-6.1,2.7-6.1,6.1c0,3.4,2.7,6.1,6.1,6.1h331.8c3.4,0,6.1-2.7,6.1-6.1
				C372.4,256.4,369.7,253.7,366.3,253.7L366.3,253.7z"/>
		</g>
		<g>
			<text transform="matrix(0.98 0 0 1 189.2092 261.2255)" class="st7 st22 st34">InfiniBand</text>
		</g>
	</g>
	<g>
		<path class="st36" d="M233.4,227.1h-22.7c-1.6,0-2.8-1.3-2.8-2.8v-6.5c0-1.6,1.3-2.8,2.8-2.8h22.7c1.6,0,2.8,1.3,2.8,2.8v6.5
			C236.3,225.8,235,227.1,233.4,227.1z"/>
		<g>
			<text transform="matrix(0.98 0 0 1 210.9118 222.0351)" class="st16 st17 st37">Virtual device</text>
		</g>
	</g>
	<g>
		<path class="st20" d="M233.4,212.9h-22.7c-1.6,0-2.8-1.3-2.8-2.8v-6.5c0-1.6,1.3-2.8,2.8-2.8h22.7c1.6,0,2.8,1.3,2.8,2.8v6.5
			C236.3,211.6,235,212.9,233.4,212.9z"/>
		<g>
			<g>
				<text transform="matrix(0.98 0 0 1 219.3464 208.0683)"><tspan x="0" y="0" class="st7 st22 st25">P</tspan><tspan x="2.5" y="0" class="st7 st22 st25">y</tspan><tspan x="4.6" y="0" class="st7 st22 st25">Torch</tspan></text>
			</g>
			
				<image style="overflow:visible;" width="300" height="300" xlink:href="5A149B5FB776DAEB.png"  transform="matrix(2.886987e-02 0 0 2.886987e-02 209.9691 202.4456)">
			</image>
		</g>
	</g>
	<g>
		<path class="st36" d="M160.1,227.1h-22.7c-1.6,0-2.8-1.3-2.8-2.8v-6.5c0-1.6,1.3-2.8,2.8-2.8h22.7c1.6,0,2.8,1.3,2.8,2.8v6.5
			C162.9,225.8,161.7,227.1,160.1,227.1z"/>
		<g>
			<text transform="matrix(0.98 0 0 1 137.5793 222.0351)" class="st16 st17 st37">Virtual device</text>
		</g>
	</g>
	<g>
		<path class="st20" d="M160.1,212.9h-22.7c-1.6,0-2.8-1.3-2.8-2.8v-6.5c0-1.6,1.3-2.8,2.8-2.8h22.7c1.6,0,2.8,1.3,2.8,2.8v6.5
			C162.9,211.6,161.7,212.9,160.1,212.9z"/>
		<g>
			<g>
				<text transform="matrix(0.98 0 0 1 146.0124 208.0683)"><tspan x="0" y="0" class="st7 st22 st25">P</tspan><tspan x="2.5" y="0" class="st7 st22 st25">y</tspan><tspan x="4.6" y="0" class="st7 st22 st25">Torch</tspan></text>
			</g>
			
				<image style="overflow:visible;" width="300" height="300" xlink:href="5A149B5FB776DAE8.png"  transform="matrix(2.886987e-02 0 0 2.886987e-02 136.6354 202.4456)">
			</image>
		</g>
	</g>
	<g>
		<path class="st36" d="M86.8,227.1H64c-1.6,0-2.8-1.3-2.8-2.8v-6.5c0-1.6,1.3-2.8,2.8-2.8h22.7c1.6,0,2.8,1.3,2.8,2.8v6.5
			C89.6,225.8,88.3,227.1,86.8,227.1z"/>
		<g>
			<text transform="matrix(0.98 0 0 1 64.2453 222.0351)" class="st16 st17 st37">Virtual device</text>
		</g>
	</g>
	<g>
		<path class="st20" d="M86.8,212.9H64c-1.6,0-2.8-1.3-2.8-2.8v-6.5c0-1.6,1.3-2.8,2.8-2.8h22.7c1.6,0,2.8,1.3,2.8,2.8v6.5
			C89.6,211.6,88.3,212.9,86.8,212.9z"/>
		<g>
			<g>
				<text transform="matrix(0.98 0 0 1 72.6784 208.0683)"><tspan x="0" y="0" class="st7 st22 st25">P</tspan><tspan x="2.5" y="0" class="st7 st22 st25">y</tspan><tspan x="4.6" y="0" class="st7 st22 st25">Torch</tspan></text>
			</g>
			
				<image style="overflow:visible;" width="300" height="300" xlink:href="5A149B5FB776DAF6.png"  transform="matrix(2.886987e-02 0 0 2.886987e-02 63.3018 202.4456)">
			</image>
		</g>
	</g>
</g>
</svg>
