<?xml version="1.0" encoding="utf-8"?>
<!-- Generator: Adobe Illustrator 28.3.0, SVG Export Plug-In . SVG Version: 6.00 Build 0)  -->
<svg version="1.1" id="Layer_1" xmlns="http://www.w3.org/2000/svg" xmlns:xlink="http://www.w3.org/1999/xlink" x="0px" y="0px"
	 viewBox="0 0 441.9 810.3" style="enable-background:new 0 0 441.9 810.3;" xml:space="preserve">
<style type="text/css">
	.st0{fill:none;stroke:#C9CACA;stroke-width:0.3;stroke-miterlimit:10;}
	.st1{fill:#C9CACA;}
	.st2{fill:none;stroke:url(#SVGID_1_);stroke-width:3;stroke-linecap:round;stroke-miterlimit:10;}
	.st3{fill:url(#SVGID_00000150800524236408892150000008483545291957458567_);}
	.st4{fill:#F7F8F8;}
	.st5{fill:none;stroke:#EFEFEF;stroke-miterlimit:10;}
	.st6{fill:#FFFFFF;stroke:#DCDDDD;stroke-width:0.3;stroke-miterlimit:10;}
	.st7{fill:#595757;}
	.st8{fill:#FFFFFF;stroke:#595757;stroke-width:0.5;stroke-linecap:round;stroke-linejoin:round;stroke-miterlimit:10;}
	.st9{fill:#B3B3B4;}
	.st10{fill:#FFFFFF;stroke:#DCDDDD;stroke-miterlimit:10;}
	.st11{fill:none;stroke:#DCDDDD;stroke-width:0.3;stroke-miterlimit:10;}
	.st12{fill:none;stroke:#595757;stroke-width:0.7;stroke-linecap:round;stroke-linejoin:round;stroke-miterlimit:3.3333;}
	.st13{fill:none;}
	.st14{fill:none;stroke:#595757;stroke-width:0.6;stroke-linecap:round;stroke-linejoin:round;stroke-miterlimit:3.3333;}
	.st15{fill:#FFFFFF;stroke:#EA5404;stroke-miterlimit:10;}
	.st16{fill:#EA5404;}
	.st17{fill:#FFFFFF;}
	.st18{fill:#DCDDDD;}
	.st19{fill:#FFFFFF;stroke:#EA5404;stroke-width:0.3;stroke-miterlimit:10;}
	.st20{fill:none;stroke:#EA5404;stroke-width:0.3;stroke-miterlimit:10;}
	.st21{fill:none;stroke:#9FA0A0;stroke-width:0.2835;stroke-miterlimit:10;}
	.st22{fill:#FFFFFF;stroke:#C9CACA;stroke-width:0.2835;stroke-miterlimit:10;}
	.st23{fill:#3E3A39;}
	.st24{fill:#F7F8F8;stroke:#C9CACA;stroke-width:0.2835;stroke-miterlimit:10;}
	.st25{fill:none;stroke:#595757;stroke-width:0.5;stroke-miterlimit:10;}
	.st26{fill:#EA5404;stroke:#EA5404;stroke-width:0.283;stroke-miterlimit:10;}
	.st27{fill:#FFFFFF;stroke:#C9CACA;stroke-width:0.283;stroke-miterlimit:10;}
	.st28{fill:#FEF7F4;stroke:#F1946C;stroke-width:0.3;stroke-miterlimit:10;}
	.st29{fill:#9FA0A0;}
	.st30{font-family:'Gilroy-SemiBold';}
	.st31{font-size:28.1795px;}
	.st32{font-size:31.7019px;}
	.st33{fill:none;stroke:#F1946C;stroke-width:0.3;stroke-miterlimit:10;}
	.st34{font-family:'Gilroy-Medium';}
	.st35{font-size:18.1357px;}
</style>
<g>
	<line class="st15" x1="223.9" y1="258.6" x2="223.9" y2="357.7"/>
	<line class="st28" x1="223.9" y1="571.1" x2="223.9" y2="670.1"/>
	<g>
		<g>
			<line class="st21" x1="223.5" y1="46.2" x2="223.5" y2="185.7"/>
			<g>
				<polygon class="st29" points="222.8,185.5 223.5,186.7 224.2,185.5 				"/>
			</g>
		</g>
	</g>
	<path class="st22" d="M425.6,155.7H21.3c-1.6,0-2.8-1.3-2.8-2.8v-49.6c0-1.6,1.3-2.8,2.8-2.8h404.3c1.6,0,2.8,1.3,2.8,2.8v49.6
		C428.4,154.4,427.2,155.7,425.6,155.7z"/>
	<g>
		<text transform="matrix(0.98 0 0 1 93.1071 137.2448)" class="st23 st30 st31">PyTorch/TensorFlow</text>
	</g>
	<path class="st28" d="M425.6,573.8H21.3c-1.6,0-2.8-1.3-2.8-2.8V325.9c0-1.6,1.3-2.8,2.8-2.8h404.3c1.6,0,2.8,1.3,2.8,2.8V571
		C428.4,572.5,427.2,573.8,425.6,573.8z"/>
	<g>
		<g>
			<g>
				<g>
					<path d="M169.8,438.5h2.8l1.4-17.8h-2.9v-2.5h6.4l5.8,13.9c0.4,0.9,0.5,1.6,0.5,1.6h0.1c0,0,0.2-0.7,0.5-1.6l5.8-13.9h6.4v2.5
						h-2.9l1.4,17.8h2.8v2.5h-8.8v-2.5h2.7l-1-13.6c0-0.7,0.1-1.9,0.1-1.9h-0.1c0,0-0.3,1.1-0.5,1.7l-5.2,12h-2.8l-5.2-12
						c-0.3-0.6-0.5-1.7-0.5-1.7h-0.1c0,0,0.1,1.2,0.1,1.9l-1,13.6h2.7v2.5h-8.8V438.5z"/>
					<path d="M223.9,438.5h2.8v-17.8h-2.8v-2.5h9.9c1.6,0,2.9,0.1,4.2,0.5c2.4,0.8,4,2.8,4,5.9c0,3.3-1.8,5.6-4.7,6.4v0.1
						c0,0,0.6,0.3,1,1.1l3.2,5.6c0.4,0.6,0.8,0.7,1.6,0.7h0.7v2.5h-1.9c-1.9,0-2.4-0.4-3.2-1.7l-3.5-6.2c-0.6-1-1-1.3-2.4-1.3h-2.7
						v6.7h2.8v2.5h-8.9V438.5z M234.5,429.2c2.5,0,4.1-1.6,4.1-4.3c0-1.8-0.7-3-2.1-3.6c-0.7-0.3-1.7-0.4-2.8-0.4h-3.8v8.3H234.5z"
						/>
					<polygon points="245.7,438.5 248.5,438.5 248.5,420.8 245.7,420.8 245.7,418.3 262.2,418.3 262.2,423.6 259.4,423.6 
						259.4,420.9 251.8,420.9 251.8,428.3 259.8,428.3 259.8,430.9 251.8,430.9 251.8,438.4 259.9,438.4 259.9,435.7 262.7,435.7 
						262.7,441 245.7,441 					"/>
					<polygon points="265.4,438.5 268.2,438.5 268.2,420.8 265.4,420.8 265.4,418.3 274.3,418.3 274.3,420.8 271.5,420.8 
						271.5,428.4 283.3,428.4 283.3,420.8 280.4,420.8 280.4,418.3 289.3,418.3 289.3,420.8 286.5,420.8 286.5,438.5 289.3,438.5 
						289.3,441 280.4,441 280.4,438.5 283.3,438.5 283.3,431 271.5,431 271.5,438.5 274.3,438.5 274.3,441 265.4,441 					"/>
					<rect x="211.2" y="411.7" class="st16" width="3" height="3"/>
					<path class="st16" d="M214.2,420.1v-2.5h-3c-6.7,0-12.1,5.4-12.1,12.1c0,6.7,5.4,12.1,12.1,12.1h3v-1.5v-1.5h3v-1.7v-1.3h3v-3
						v-3v-3v-3h-3v-1.5v-1.5h-3V420.1z"/>
					<rect x="217.2" y="417.7" class="st16" width="3" height="3"/>
					<rect x="220.3" y="414.6" class="st16" width="3" height="3"/>
				</g>
				<g>
					<text transform="matrix(0.98 0 0 1 139.5456 473.7438)" class="st30 st31">MoAI Platform</text>
				</g>
			</g>
		</g>
	</g>
	<path class="st26" d="M425.6,270.9H21.3c-1.6,0-2.8-1.3-2.8-2.8v-83.7c0-1.6,1.3-2.8,2.8-2.8h404.3c1.6,0,2.8,1.3,2.8,2.8v83.7
		C428.4,269.7,427.2,270.9,425.6,270.9z"/>
	<g>
		<text transform="matrix(0.98 0 0 1 55.8986 237.5036)" class="st17 st30 st32">Single GPU Abstraction</text>
	</g>
	<path class="st22" d="M425.6,76.5H21.3c-1.6,0-2.8-1.3-2.8-2.8V24c0-1.6,1.3-2.8,2.8-2.8h404.3c1.6,0,2.8,1.3,2.8,2.8v49.6
		C428.4,75.2,427.2,76.5,425.6,76.5z"/>
	<g>
		<text transform="matrix(0.98 0 0 1 127.3923 57.2252)" class="st23 st30 st31">AI Applications</text>
	</g>
	<path class="st33" d="M352.3,687.2l0-8c0-4.4-3.3-8-7.3-8l-113,0h-19.6l-113,0c-4,0-7.3,3.6-7.3,8l0,8"/>
	<g>
		<path class="st17" d="M24.2,795.1c-3,0-5.4-2.4-5.4-5.4v-96.9c0-3,2.4-5.4,5.4-5.4h137.6c3,0,5.4,2.4,5.4,5.4v96.9
			c0,3-2.4,5.4-5.4,5.4H24.2z"/>
		<path class="st18" d="M161.8,687.6c2.9,0,5.2,2.3,5.2,5.2v96.9c0,2.9-2.3,5.2-5.2,5.2H24.2c-2.9,0-5.2-2.3-5.2-5.2v-96.9
			c0-2.9,2.3-5.2,5.2-5.2H161.8 M161.8,687.1H24.2c-3.1,0-5.7,2.5-5.7,5.7v96.9c0,3.1,2.5,5.7,5.7,5.7h137.6c3.1,0,5.7-2.5,5.7-5.7
			v-96.9C167.5,689.6,164.9,687.1,161.8,687.1L161.8,687.1z"/>
	</g>
	<g>
		<text transform="matrix(0.98 0 0 1 74.8815 779.361)" class="st23 st34 st35">GPU</text>
	</g>
	<g>
		<g>
			<path class="st7" d="M66.6,745c-0.5,0-0.9-0.4-0.9-0.9V713h-1.9c-0.5,0-0.9-0.4-0.9-0.9s0.4-0.9,0.9-0.9h2.8
				c0.5,0,0.9,0.4,0.9,0.9v32C67.4,744.7,67,745,66.6,745z"/>
		</g>
		<g>
			<path class="st7" d="M66.6,724.4h-2.6c-0.5,0-0.9-0.4-0.9-0.9v-5.1c0-0.5,0.4-0.9,0.9-0.9h2.6c0.5,0,0.9,0.4,0.9,0.9v5.1
				C67.4,724,67,724.4,66.6,724.4z M64.8,722.7h0.9v-3.4h-0.9V722.7z"/>
		</g>
		<g>
			<path class="st7" d="M66.5,739.6h-2.6c-0.5,0-0.9-0.4-0.9-0.9v-12.1c0-0.5,0.4-0.9,0.9-0.9h2.6c0.5,0,0.9,0.4,0.9,0.9v12.1
				C67.3,739.2,67,739.6,66.5,739.6z M64.7,737.9h0.9v-10.4h-0.9V737.9z"/>
		</g>
		<g>
			<g>
				<path class="st7" d="M107.5,739.2c-6.8,0-12.3-5.5-12.3-12.3c0-6.8,5.5-12.3,12.3-12.3s12.3,5.5,12.3,12.3
					C119.9,733.7,114.3,739.2,107.5,739.2z M107.5,716.2c-5.9,0-10.6,4.8-10.6,10.6c0,5.9,4.8,10.6,10.6,10.6s10.6-4.8,10.6-10.6
					C118.2,721,113.4,716.2,107.5,716.2z"/>
			</g>
			<g>
				<g>
					<path class="st7" d="M107.5,724.3c-0.5,0-0.9-0.4-0.9-0.9c0-2.9-2.4-5.4-5.4-5.4c-0.5,0-0.9-0.4-0.9-0.9s0.4-0.9,0.9-0.9
						c3.9,0,7.1,3.2,7.1,7.1C108.4,723.9,108,724.3,107.5,724.3z"/>
				</g>
			</g>
			<g>
				<g>
					<path class="st7" d="M109.7,725.1c-0.2,0-0.4-0.1-0.5-0.2c-0.4-0.3-0.4-0.8-0.1-1.2c1.9-2.3,1.6-5.6-0.7-7.5
						c-0.4-0.3-0.4-0.8-0.1-1.2s0.8-0.4,1.2-0.1c3,2.5,3.4,7,0.9,10C110.2,725,110,725.1,109.7,725.1z"/>
				</g>
			</g>
			<g>
				<g>
					<path class="st7" d="M110.9,727.2c-0.4,0-0.8-0.3-0.8-0.7c-0.1-0.5,0.2-0.9,0.7-1c1.4-0.3,2.6-1,3.5-2.2c0.8-1.2,1.1-2.6,0.9-4
						c-0.1-0.5,0.2-0.9,0.7-1c0.5-0.1,0.9,0.2,1,0.7c0.3,1.9-0.1,3.7-1.2,5.3c-1.1,1.5-2.7,2.6-4.6,2.9
						C111,727.1,111,727.2,110.9,727.2z"/>
				</g>
			</g>
			<g>
				<g>
					<path class="st7" d="M113.6,730.3c-1.2,0-2.4-0.3-3.5-0.9c-0.4-0.2-0.5-0.8-0.3-1.2s0.8-0.5,1.2-0.3c1.2,0.7,2.7,0.9,4.1,0.5
						c1.4-0.4,2.5-1.3,3.3-2.5c0.2-0.4,0.8-0.5,1.2-0.3c0.4,0.2,0.5,0.8,0.3,1.2c-0.9,1.6-2.5,2.8-4.3,3.3
						C114.8,730.2,114.2,730.3,113.6,730.3z"/>
				</g>
			</g>
			<g>
				<g>
					<path class="st7" d="M114.5,735c-1,0-2-0.2-3-0.7c-1.7-0.8-3-2.2-3.7-4c-0.2-0.4,0.1-0.9,0.5-1.1c0.4-0.2,0.9,0.1,1.1,0.5
						c0.5,1.3,1.5,2.4,2.8,3c1.3,0.6,2.8,0.7,4.1,0.2c0.4-0.2,0.9,0.1,1.1,0.5c0.2,0.4-0.1,0.9-0.5,1.1
						C116.2,734.9,115.3,735,114.5,735z"/>
				</g>
			</g>
			<g>
				<g>
					<path class="st7" d="M110.1,738.9c-0.1,0-0.2,0-0.3-0.1c-3.7-1.3-5.6-5.4-4.2-9.1c0.2-0.4,0.6-0.7,1.1-0.5
						c0.4,0.2,0.7,0.6,0.5,1.1c-0.5,1.3-0.4,2.8,0.2,4.1s1.7,2.3,3,2.8c0.4,0.2,0.7,0.6,0.5,1.1
						C110.7,738.7,110.4,738.9,110.1,738.9z"/>
				</g>
			</g>
			<g>
				<g>
					<path class="st7" d="M102.3,737.9c-0.3,0-0.6-0.1-0.7-0.4c-0.9-1.6-1.2-3.5-0.7-5.4s1.7-3.3,3.3-4.3c0.4-0.2,0.9-0.1,1.2,0.3
						c0.2,0.4,0.1,0.9-0.3,1.2c-1.2,0.7-2.1,1.9-2.5,3.3c-0.4,1.4-0.2,2.8,0.5,4.1c0.2,0.4,0.1,0.9-0.3,1.2
						C102.6,737.9,102.4,737.9,102.3,737.9z"/>
				</g>
			</g>
			<g>
				<g>
					<path class="st7" d="M97,732.2c0,0-0.1,0-0.1,0c-0.5-0.1-0.8-0.5-0.7-1c0.3-1.9,1.4-3.5,2.9-4.6s3.4-1.5,5.3-1.2
						c0.5,0.1,0.8,0.5,0.7,1c-0.1,0.5-0.5,0.8-1,0.7c-1.4-0.3-2.8,0.1-4,0.9c-1.2,0.8-2,2-2.2,3.5C97.7,731.9,97.4,732.2,97,732.2z"
						/>
				</g>
			</g>
			<g>
				<g>
					<path class="st7" d="M105.3,725.1c-0.3,0-0.5-0.1-0.6-0.3c-1.9-2.3-5.3-2.6-7.5-0.7c-0.4,0.3-0.9,0.3-1.2-0.1
						c-0.3-0.4-0.3-0.9,0.1-1.2c3-2.5,7.5-2.1,10,0.9c0.3,0.4,0.3,0.9-0.1,1.2C105.7,725.1,105.5,725.1,105.3,725.1z"/>
				</g>
			</g>
			<g>
				<path class="st7" d="M107.5,731.2c-2.4,0-4.3-1.9-4.3-4.3c0-2.4,1.9-4.3,4.3-4.3c2.4,0,4.3,1.9,4.3,4.3
					C111.8,729.2,109.9,731.2,107.5,731.2z M107.5,724.3c-1.4,0-2.6,1.1-2.6,2.6s1.1,2.6,2.6,2.6c1.4,0,2.6-1.1,2.6-2.6
					S109,724.3,107.5,724.3z"/>
			</g>
		</g>
		<g>
			<path class="st7" d="M80.8,745h-4.9c-0.5,0-0.9-0.4-0.9-0.9v-2.4c0-0.5,0.4-0.9,0.9-0.9c0.5,0,0.9,0.4,0.9,0.9v1.5H80v-1.5
				c0-0.5,0.4-0.9,0.9-0.9c0.5,0,0.9,0.4,0.9,0.9v2.4C81.7,744.7,81.3,745,80.8,745z"/>
		</g>
		<g>
			<path class="st7" d="M104.7,745H83.4c-0.5,0-0.9-0.4-0.9-0.9v-2.4c0-0.5,0.4-0.9,0.9-0.9c0.5,0,0.9,0.4,0.9,0.9v1.5h19.6v-1.5
				c0-0.5,0.4-0.9,0.9-0.9s0.9,0.4,0.9,0.9v2.4C105.6,744.7,105.2,745,104.7,745z"/>
		</g>
		<g>
			<path class="st7" d="M69,716.1h-2.4c-0.5,0-0.9-0.4-0.9-0.9s0.4-0.9,0.9-0.9H69c0.5,0,0.9,0.4,0.9,0.9S69.4,716.1,69,716.1z"/>
		</g>
		<g>
			<path class="st7" d="M69,742.5h-2c-0.5,0-0.9-0.4-0.9-0.9c0-0.5,0.4-0.9,0.9-0.9h2c0.5,0,0.9,0.4,0.9,0.9
				C69.8,742.1,69.4,742.5,69,742.5z"/>
		</g>
		<g>
			<path class="st7" d="M122.2,742.5h-53c-0.5,0-0.9-0.4-0.9-0.9v-29.5c0-0.5,0.4-0.9,0.9-0.9h46.7c3.9,0,7.1,3.2,7.1,7.1v23.2
				C123,742.1,122.7,742.5,122.2,742.5z M70.1,740.8h51.2v-22.4c0-3-2.4-5.4-5.4-5.4H70.1V740.8z"/>
		</g>
		<g>
			<path class="st7" d="M91,729.6H74.8c-0.5,0-0.9-0.4-0.9-0.9V725c0-0.5,0.4-0.9,0.9-0.9H91c0.5,0,0.9,0.4,0.9,0.9v3.8
				C91.9,729.2,91.5,729.6,91,729.6z M75.6,727.9h14.5v-2H75.6L75.6,727.9L75.6,727.9z"/>
		</g>
		<g>
			<path class="st7" d="M91,722.1H74.8c-0.5,0-0.9-0.4-0.9-0.9s0.4-0.9,0.9-0.9H91c0.5,0,0.9,0.4,0.9,0.9S91.5,722.1,91,722.1z"/>
		</g>
		<g>
			<path class="st7" d="M91,733.4H74.8c-0.5,0-0.9-0.4-0.9-0.9s0.4-0.9,0.9-0.9H91c0.5,0,0.9,0.4,0.9,0.9S91.5,733.4,91,733.4z"/>
		</g>
	</g>
	<g>
		<g>
			<path class="st17" d="M285.5,795.1c-3,0-5.4-2.4-5.4-5.4v-96.9c0-3,2.4-5.4,5.4-5.4h137.6c3,0,5.4,2.4,5.4,5.4v96.9
				c0,3-2.4,5.4-5.4,5.4H285.5z"/>
			<path class="st18" d="M423.1,687.6c2.9,0,5.2,2.3,5.2,5.2v96.9c0,2.9-2.3,5.2-5.2,5.2H285.5c-2.9,0-5.2-2.3-5.2-5.2v-96.9
				c0-2.9,2.3-5.2,5.2-5.2H423.1 M423.1,687.1H285.5c-3.1,0-5.7,2.5-5.7,5.7v96.9c0,3.1,2.5,5.7,5.7,5.7h137.6
				c3.1,0,5.7-2.5,5.7-5.7v-96.9C428.8,689.6,426.3,687.1,423.1,687.1L423.1,687.1z"/>
		</g>
		<g>
			<text transform="matrix(0.98 0 0 1 337.2233 779.361)" class="st23 st34 st35">NPU</text>
		</g>
		<g>
			<path class="st7" d="M362.8,716.4h-17c-2,0-3.6,1.6-3.6,3.6v17c0,2,1.6,3.6,3.6,3.6h17c2,0,3.6-1.6,3.6-3.6v-17
				C366.4,718,364.8,716.4,362.8,716.4z M364.6,737c0,1-0.8,1.8-1.8,1.8h-17c-1,0-1.8-0.8-1.8-1.8v-17c0-1,0.8-1.8,1.8-1.8h17
				c1,0,1.8,0.8,1.8,1.8V737z"/>
			<path class="st7" d="M374.5,722.7c0.5,0,0.9-0.4,0.9-0.9c0-0.5-0.4-0.9-0.9-0.9h-3.6v-2.7h3.6c0.5,0,0.9-0.4,0.9-0.9
				c0-0.5-0.4-0.9-0.9-0.9h-3.6c0-2.5-2-4.5-4.5-4.5v-3.6c0-0.5-0.4-0.9-0.9-0.9s-0.9,0.4-0.9,0.9v3.6h-2.7v-3.6
				c0-0.5-0.4-0.9-0.9-0.9c-0.5,0-0.9,0.4-0.9,0.9v3.6h-2.7v-3.6c0-0.5-0.4-0.9-0.9-0.9c-0.5,0-0.9,0.4-0.9,0.9v3.6H353v-3.6
				c0-0.5-0.4-0.9-0.9-0.9s-0.9,0.4-0.9,0.9v3.6h-2.7v-3.6c0-0.5-0.4-0.9-0.9-0.9s-0.9,0.4-0.9,0.9v3.6H344v-3.6
				c0-0.5-0.4-0.9-0.9-0.9c-0.5,0-0.9,0.4-0.9,0.9v3.6c-2.5,0-4.5,2-4.5,4.5h-3.6c-0.5,0-0.9,0.4-0.9,0.9c0,0.5,0.4,0.9,0.9,0.9h3.6
				v2.7h-3.6c-0.5,0-0.9,0.4-0.9,0.9c0,0.5,0.4,0.9,0.9,0.9h3.6v2.7h-3.6c-0.5,0-0.9,0.4-0.9,0.9c0,0.5,0.4,0.9,0.9,0.9h3.6v2.7
				h-3.6c-0.5,0-0.9,0.4-0.9,0.9c0,0.5,0.4,0.9,0.9,0.9h3.6v2.7h-3.6c-0.5,0-0.9,0.4-0.9,0.9s0.4,0.9,0.9,0.9h3.6v2.7h-3.6
				c-0.5,0-0.9,0.4-0.9,0.9s0.4,0.9,0.9,0.9h3.6c0,2.5,2,4.5,4.5,4.5v3.6c0,0.5,0.4,0.9,0.9,0.9c0.5,0,0.9-0.4,0.9-0.9v-3.6h2.7v3.6
				c0,0.5,0.4,0.9,0.9,0.9s0.9-0.4,0.9-0.9v-3.6h2.7v3.6c0,0.5,0.4,0.9,0.9,0.9s0.9-0.4,0.9-0.9v-3.6h2.7v3.6c0,0.5,0.4,0.9,0.9,0.9
				c0.5,0,0.9-0.4,0.9-0.9v-3.6h2.7v3.6c0,0.5,0.4,0.9,0.9,0.9c0.5,0,0.9-0.4,0.9-0.9v-3.6h2.7v3.6c0,0.5,0.4,0.9,0.9,0.9
				s0.9-0.4,0.9-0.9v-3.6c2.5,0,4.5-2,4.5-4.5h3.6c0.5,0,0.9-0.4,0.9-0.9s-0.4-0.9-0.9-0.9h-3.6v-2.7h3.6c0.5,0,0.9-0.4,0.9-0.9
				s-0.4-0.9-0.9-0.9h-3.6v-2.7h3.6c0.5,0,0.9-0.4,0.9-0.9c0-0.5-0.4-0.9-0.9-0.9h-3.6v-2.7h3.6c0.5,0,0.9-0.4,0.9-0.9
				c0-0.5-0.4-0.9-0.9-0.9h-3.6v-2.7H374.5z M369.1,740.6c0,1.5-1.2,2.7-2.7,2.7h-24.2c-1.5,0-2.7-1.2-2.7-2.7v-24.2
				c0-1.5,1.2-2.7,2.7-2.7h24.2c1.5,0,2.7,1.2,2.7,2.7V740.6z"/>
			<path class="st7" d="M361.1,720.9h-13.4c-0.5,0-0.9,0.4-0.9,0.9c0,0.5,0.4,0.9,0.9,0.9h13.4c0.5,0,0.9-0.4,0.9-0.9
				C361.9,721.3,361.5,720.9,361.1,720.9z"/>
			<path class="st7" d="M361.1,734.3h-13.4c-0.5,0-0.9,0.4-0.9,0.9s0.4,0.9,0.9,0.9h13.4c0.5,0,0.9-0.4,0.9-0.9
				S361.5,734.3,361.1,734.3z"/>
		</g>
	</g>
</g>
</svg>
